G04 Layer: TopSilkLayer*
G04 EasyEDA v6.3.39, 2020-04-21T17:53:27+02:00*
G04 2b193ae985c243da8a3a613e667a09fd,91cc4837159741479c5be70faa949f3f,10*
G04 Gerber Generator version 0.2*
G04 Scale: 100 percent, Rotated: No, Reflected: No *
G04 Dimensions in millimeters *
G04 leading zeros omitted , absolute positions ,3 integer and 3 decimal *
%FSLAX33Y33*%
%MOMM*%
G90*
G71D02*

%ADD10C,0.254000*%
%ADD23C,0.203200*%
%ADD24C,0.203200*%
%ADD25C,0.202999*%
%ADD26C,0.399999*%
%ADD27C,0.200000*%
%ADD28C,0.101600*%
%ADD29C,0.152400*%

%LPD*%

%LPD*%
G36*
G01X18790Y31902D02*
G01X18649Y31902D01*
G01X18574Y31901D01*
G01X18416Y31901D01*
G01X18333Y31900D01*
G01X18158Y31900D01*
G01X18066Y31899D01*
G01X17444Y31899D01*
G01X17333Y31898D01*
G01X17230Y31898D01*
G01X17135Y31897D01*
G01X17046Y31896D01*
G01X16965Y31895D01*
G01X16889Y31894D01*
G01X16821Y31893D01*
G01X16757Y31891D01*
G01X16700Y31890D01*
G01X16648Y31888D01*
G01X16600Y31886D01*
G01X16557Y31883D01*
G01X16519Y31881D01*
G01X16484Y31878D01*
G01X16452Y31874D01*
G01X16424Y31870D01*
G01X16399Y31866D01*
G01X16376Y31862D01*
G01X16357Y31858D01*
G01X16338Y31853D01*
G01X16306Y31841D01*
G01X16278Y31829D01*
G01X16216Y31791D01*
G01X16152Y31739D01*
G01X16092Y31680D01*
G01X16046Y31621D01*
G01X16035Y31605D01*
G01X16025Y31589D01*
G01X16016Y31573D01*
G01X16008Y31557D01*
G01X16000Y31540D01*
G01X15993Y31520D01*
G01X15987Y31499D01*
G01X15982Y31474D01*
G01X15977Y31446D01*
G01X15973Y31413D01*
G01X15969Y31376D01*
G01X15966Y31333D01*
G01X15964Y31284D01*
G01X15961Y31229D01*
G01X15960Y31167D01*
G01X15958Y31096D01*
G01X15957Y31017D01*
G01X15956Y30930D01*
G01X15955Y30833D01*
G01X15955Y30334D01*
G01X15954Y30180D01*
G01X15954Y28875D01*
G01X15798Y28875D01*
G01X15727Y28870D01*
G01X15658Y28854D01*
G01X15596Y28830D01*
G01X15546Y28798D01*
G01X15450Y28721D01*
G01X15450Y24339D01*
G01X15549Y24138D01*
G01X15578Y24083D01*
G01X15610Y24030D01*
G01X15644Y23978D01*
G01X15681Y23926D01*
G01X15721Y23877D01*
G01X15763Y23829D01*
G01X15807Y23782D01*
G01X15853Y23737D01*
G01X15901Y23695D01*
G01X15951Y23654D01*
G01X16002Y23615D01*
G01X16054Y23579D01*
G01X16108Y23544D01*
G01X16163Y23513D01*
G01X16218Y23483D01*
G01X16274Y23457D01*
G01X16331Y23433D01*
G01X16389Y23412D01*
G01X16446Y23394D01*
G01X16503Y23379D01*
G01X16561Y23366D01*
G01X16618Y23358D01*
G01X16675Y23353D01*
G01X16731Y23351D01*
G01X16963Y23351D01*
G01X16963Y22661D01*
G01X16964Y22561D01*
G01X16966Y22475D01*
G01X16968Y22401D01*
G01X16972Y22337D01*
G01X16976Y22282D01*
G01X16982Y22236D01*
G01X16990Y22197D01*
G01X17000Y22163D01*
G01X17010Y22132D01*
G01X17024Y22104D01*
G01X17039Y22078D01*
G01X17064Y22040D01*
G01X17095Y22005D01*
G01X17130Y21973D01*
G01X17168Y21942D01*
G01X17210Y21915D01*
G01X17254Y21891D01*
G01X17302Y21869D01*
G01X17351Y21852D01*
G01X17403Y21837D01*
G01X17455Y21827D01*
G01X17509Y21821D01*
G01X17564Y21819D01*
G01X17729Y21819D01*
G01X17729Y20901D01*
G01X17730Y20808D01*
G01X17730Y20716D01*
G01X17731Y20627D01*
G01X17732Y20541D01*
G01X17733Y20460D01*
G01X17735Y20382D01*
G01X17736Y20308D01*
G01X17738Y20240D01*
G01X17740Y20178D01*
G01X17743Y20122D01*
G01X17745Y20072D01*
G01X17748Y20029D01*
G01X17751Y19994D01*
G01X17754Y19967D01*
G01X17757Y19949D01*
G01X17760Y19940D01*
G01X17778Y19919D01*
G01X17807Y19894D01*
G01X17842Y19869D01*
G01X17880Y19848D01*
G01X17958Y19827D01*
G01X18042Y19838D01*
G01X18120Y19877D01*
G01X18182Y19940D01*
G01X18185Y19949D01*
G01X18188Y19967D01*
G01X18190Y19994D01*
G01X18194Y20029D01*
G01X18196Y20072D01*
G01X18199Y20122D01*
G01X18201Y20178D01*
G01X18203Y20240D01*
G01X18205Y20308D01*
G01X18207Y20382D01*
G01X18208Y20460D01*
G01X18209Y20541D01*
G01X18210Y20627D01*
G01X18211Y20716D01*
G01X18212Y20808D01*
G01X18212Y20901D01*
G01X18213Y21819D01*
G01X18378Y21819D01*
G01X18453Y21823D01*
G01X18528Y21836D01*
G01X18602Y21856D01*
G01X18673Y21884D01*
G01X18740Y21917D01*
G01X18800Y21957D01*
G01X18854Y22001D01*
G01X18899Y22051D01*
G01X18916Y22074D01*
G01X18930Y22097D01*
G01X18942Y22123D01*
G01X18951Y22154D01*
G01X18959Y22190D01*
G01X18966Y22234D01*
G01X18970Y22287D01*
G01X18974Y22352D01*
G01X18976Y22429D01*
G01X18978Y22520D01*
G01X18978Y22627D01*
G01X18979Y22752D01*
G01X18979Y23351D01*
G01X19203Y23351D01*
G01X19257Y23353D01*
G01X19312Y23358D01*
G01X19366Y23366D01*
G01X19421Y23378D01*
G01X19477Y23393D01*
G01X19532Y23411D01*
G01X19587Y23432D01*
G01X19641Y23456D01*
G01X19695Y23482D01*
G01X19749Y23511D01*
G01X19801Y23542D01*
G01X19852Y23576D01*
G01X19902Y23612D01*
G01X19951Y23650D01*
G01X19998Y23691D01*
G01X20044Y23733D01*
G01X20088Y23777D01*
G01X20130Y23823D01*
G01X20170Y23870D01*
G01X20207Y23919D01*
G01X20242Y23969D01*
G01X20275Y24021D01*
G01X20304Y24074D01*
G01X20331Y24127D01*
G01X20430Y24339D01*
G01X20430Y27430D01*
G01X20429Y27551D01*
G01X20429Y27770D01*
G01X20428Y27868D01*
G01X20428Y27960D01*
G01X20427Y28045D01*
G01X20426Y28124D01*
G01X20425Y28197D01*
G01X20424Y28263D01*
G01X20423Y28325D01*
G01X20421Y28380D01*
G01X20420Y28431D01*
G01X20418Y28477D01*
G01X20416Y28519D01*
G01X20413Y28556D01*
G01X20411Y28590D01*
G01X20408Y28619D01*
G01X20405Y28646D01*
G01X20402Y28669D01*
G01X20399Y28689D01*
G01X20396Y28707D01*
G01X20392Y28722D01*
G01X20388Y28736D01*
G01X20383Y28747D01*
G01X20378Y28757D01*
G01X20373Y28766D01*
G01X20368Y28774D01*
G01X20356Y28788D01*
G01X20349Y28794D01*
G01X20306Y28828D01*
G01X20253Y28853D01*
G01X20193Y28870D01*
G01X20128Y28875D01*
G01X19987Y28875D01*
G01X19987Y30339D01*
G01X19988Y30415D01*
G01X19988Y30559D01*
G01X19989Y30628D01*
G01X19989Y30694D01*
G01X19990Y30758D01*
G01X19990Y30879D01*
G01X19989Y30936D01*
G01X19989Y30991D01*
G01X19988Y31043D01*
G01X19986Y31094D01*
G01X19984Y31143D01*
G01X19982Y31190D01*
G01X19979Y31235D01*
G01X19976Y31278D01*
G01X19972Y31319D01*
G01X19966Y31358D01*
G01X19961Y31395D01*
G01X19954Y31431D01*
G01X19947Y31465D01*
G01X19939Y31498D01*
G01X19930Y31528D01*
G01X19920Y31557D01*
G01X19909Y31585D01*
G01X19897Y31611D01*
G01X19883Y31636D01*
G01X19869Y31659D01*
G01X19853Y31681D01*
G01X19836Y31701D01*
G01X19818Y31721D01*
G01X19798Y31738D01*
G01X19777Y31755D01*
G01X19755Y31771D01*
G01X19731Y31786D01*
G01X19705Y31799D01*
G01X19678Y31811D01*
G01X19649Y31823D01*
G01X19618Y31833D01*
G01X19586Y31842D01*
G01X19552Y31851D01*
G01X19516Y31859D01*
G01X19478Y31866D01*
G01X19438Y31872D01*
G01X19396Y31877D01*
G01X19352Y31882D01*
G01X19306Y31886D01*
G01X19258Y31890D01*
G01X19208Y31893D01*
G01X19155Y31895D01*
G01X19100Y31897D01*
G01X19043Y31899D01*
G01X18984Y31900D01*
G01X18922Y31901D01*
G01X18857Y31901D01*
G01X18790Y31902D01*
G37*

%LPC*%
G36*
G01X18455Y23311D02*
G01X17487Y23311D01*
G01X17487Y22343D01*
G01X18455Y22343D01*
G01X18455Y23311D01*
G37*
G36*
G01X17940Y28380D02*
G01X15952Y28389D01*
G01X15963Y26361D01*
G01X15975Y24333D01*
G01X16091Y24180D01*
G01X16119Y24147D01*
G01X16153Y24112D01*
G01X16191Y24078D01*
G01X16233Y24044D01*
G01X16277Y24012D01*
G01X16323Y23982D01*
G01X16368Y23955D01*
G01X16413Y23932D01*
G01X16438Y23920D01*
G01X16462Y23910D01*
G01X16484Y23900D01*
G01X16530Y23884D01*
G01X16555Y23877D01*
G01X16581Y23870D01*
G01X16610Y23864D01*
G01X16642Y23860D01*
G01X16678Y23855D01*
G01X16719Y23851D01*
G01X16765Y23848D01*
G01X16816Y23845D01*
G01X16874Y23843D01*
G01X16939Y23841D01*
G01X17012Y23839D01*
G01X17093Y23838D01*
G01X17183Y23837D01*
G01X17283Y23836D01*
G01X17793Y23836D01*
G01X17951Y23835D01*
G01X18108Y23836D01*
G01X18617Y23836D01*
G01X18716Y23837D01*
G01X18807Y23838D01*
G01X18888Y23839D01*
G01X18961Y23841D01*
G01X19026Y23843D01*
G01X19084Y23845D01*
G01X19135Y23848D01*
G01X19181Y23851D01*
G01X19222Y23855D01*
G01X19258Y23859D01*
G01X19290Y23864D01*
G01X19319Y23870D01*
G01X19346Y23877D01*
G01X19370Y23884D01*
G01X19393Y23891D01*
G01X19416Y23900D01*
G01X19438Y23910D01*
G01X19461Y23920D01*
G01X19486Y23931D01*
G01X19542Y23959D01*
G01X19593Y23988D01*
G01X19640Y24019D01*
G01X19684Y24051D01*
G01X19724Y24086D01*
G01X19760Y24123D01*
G01X19793Y24162D01*
G01X19822Y24203D01*
G01X19849Y24247D01*
G01X19871Y24294D01*
G01X19891Y24343D01*
G01X19908Y24395D01*
G01X19911Y24405D01*
G01X19913Y24420D01*
G01X19915Y24438D01*
G01X19918Y24459D01*
G01X19920Y24485D01*
G01X19922Y24514D01*
G01X19924Y24546D01*
G01X19925Y24582D01*
G01X19927Y24621D01*
G01X19929Y24663D01*
G01X19930Y24710D01*
G01X19931Y24760D01*
G01X19933Y24813D01*
G01X19934Y24870D01*
G01X19935Y24930D01*
G01X19936Y24993D01*
G01X19937Y25060D01*
G01X19938Y25130D01*
G01X19939Y25204D01*
G01X19940Y25281D01*
G01X19940Y25444D01*
G01X19941Y25531D01*
G01X19941Y25910D01*
G01X19940Y26013D01*
G01X19940Y26228D01*
G01X19939Y26340D01*
G01X19938Y26456D01*
G01X19926Y28371D01*
G01X17940Y28380D01*
G37*
G36*
G01X18485Y31415D02*
G01X17391Y31415D01*
G01X17303Y31414D01*
G01X17137Y31414D01*
G01X17059Y31413D01*
G01X16915Y31413D01*
G01X16850Y31412D01*
G01X16788Y31412D01*
G01X16732Y31411D01*
G01X16681Y31411D01*
G01X16634Y31410D01*
G01X16593Y31409D01*
G01X16558Y31409D01*
G01X16528Y31408D01*
G01X16505Y31408D01*
G01X16488Y31407D01*
G01X16477Y31406D01*
G01X16473Y31406D01*
G01X16472Y31398D01*
G01X16471Y31384D01*
G01X16470Y31361D01*
G01X16469Y31330D01*
G01X16468Y31293D01*
G01X16467Y31249D01*
G01X16466Y31199D01*
G01X16465Y31143D01*
G01X16464Y31081D01*
G01X16463Y31015D01*
G01X16462Y30945D01*
G01X16461Y30871D01*
G01X16460Y30793D01*
G01X16460Y30712D01*
G01X16459Y30628D01*
G01X16459Y30542D01*
G01X16458Y30455D01*
G01X16458Y30366D01*
G01X16457Y30276D01*
G01X16456Y30095D01*
G01X16456Y29421D01*
G01X16457Y29350D01*
G01X16457Y29283D01*
G01X16458Y29221D01*
G01X16458Y29164D01*
G01X16459Y29112D01*
G01X16460Y29067D01*
G01X16460Y29028D01*
G01X16461Y28996D01*
G01X16462Y28971D01*
G01X16463Y28954D01*
G01X16464Y28946D01*
G01X16467Y28938D01*
G01X16471Y28931D01*
G01X16478Y28924D01*
G01X16487Y28918D01*
G01X16498Y28912D01*
G01X16514Y28907D01*
G01X16533Y28903D01*
G01X16557Y28898D01*
G01X16586Y28895D01*
G01X16620Y28891D01*
G01X16661Y28888D01*
G01X16709Y28886D01*
G01X16763Y28884D01*
G01X16825Y28882D01*
G01X16896Y28880D01*
G01X16975Y28879D01*
G01X17063Y28878D01*
G01X17162Y28877D01*
G01X17270Y28876D01*
G01X17520Y28876D01*
G01X17663Y28875D01*
G01X19486Y28875D01*
G01X19481Y30095D01*
G01X19481Y30195D01*
G01X19480Y30293D01*
G01X19480Y30389D01*
G01X19479Y30482D01*
G01X19479Y30572D01*
G01X19478Y30660D01*
G01X19478Y30744D01*
G01X19477Y30824D01*
G01X19476Y30900D01*
G01X19476Y30971D01*
G01X19475Y31038D01*
G01X19474Y31099D01*
G01X19474Y31155D01*
G01X19473Y31205D01*
G01X19472Y31249D01*
G01X19472Y31287D01*
G01X19471Y31317D01*
G01X19471Y31341D01*
G01X19470Y31357D01*
G01X19469Y31365D01*
G01X19467Y31370D01*
G01X19461Y31375D01*
G01X19451Y31379D01*
G01X19437Y31383D01*
G01X19419Y31386D01*
G01X19396Y31389D01*
G01X19369Y31393D01*
G01X19337Y31395D01*
G01X19299Y31398D01*
G01X19257Y31401D01*
G01X19209Y31403D01*
G01X19154Y31405D01*
G01X19094Y31407D01*
G01X19028Y31409D01*
G01X18955Y31410D01*
G01X18875Y31411D01*
G01X18788Y31412D01*
G01X18695Y31413D01*
G01X18594Y31414D01*
G01X18485Y31415D01*
G37*

%LPD*%
G36*
G01X18782Y30358D02*
G01X18742Y30363D01*
G01X18701Y30359D01*
G01X18658Y30345D01*
G01X18615Y30323D01*
G01X18570Y30290D01*
G01X18541Y30265D01*
G01X18519Y30239D01*
G01X18502Y30208D01*
G01X18490Y30171D01*
G01X18482Y30121D01*
G01X18477Y30056D01*
G01X18475Y29974D01*
G01X18474Y29868D01*
G01X18476Y29745D01*
G01X18482Y29647D01*
G01X18493Y29569D01*
G01X18512Y29509D01*
G01X18538Y29464D01*
G01X18574Y29430D01*
G01X18621Y29404D01*
G01X18680Y29383D01*
G01X18723Y29378D01*
G01X18770Y29386D01*
G01X18820Y29408D01*
G01X18872Y29442D01*
G01X18905Y29470D01*
G01X18931Y29497D01*
G01X18950Y29526D01*
G01X18963Y29564D01*
G01X18971Y29612D01*
G01X18976Y29676D01*
G01X18978Y29759D01*
G01X18979Y29866D01*
G01X18978Y29963D01*
G01X18976Y30043D01*
G01X18971Y30107D01*
G01X18964Y30158D01*
G01X18953Y30199D01*
G01X18939Y30232D01*
G01X18921Y30261D01*
G01X18898Y30286D01*
G01X18860Y30320D01*
G01X18821Y30344D01*
G01X18782Y30358D01*
G37*

%LPD*%
G36*
G01X17241Y30359D02*
G01X17199Y30363D01*
G01X17159Y30358D01*
G01X17120Y30344D01*
G01X17082Y30320D01*
G01X17043Y30286D01*
G01X17020Y30261D01*
G01X17002Y30232D01*
G01X16988Y30199D01*
G01X16977Y30158D01*
G01X16970Y30107D01*
G01X16966Y30043D01*
G01X16963Y29963D01*
G01X16963Y29759D01*
G01X16965Y29676D01*
G01X16970Y29612D01*
G01X16978Y29564D01*
G01X16992Y29526D01*
G01X17010Y29497D01*
G01X17036Y29470D01*
G01X17070Y29442D01*
G01X17121Y29408D01*
G01X17171Y29386D01*
G01X17218Y29378D01*
G01X17261Y29383D01*
G01X17320Y29404D01*
G01X17368Y29430D01*
G01X17404Y29464D01*
G01X17430Y29509D01*
G01X17448Y29569D01*
G01X17459Y29647D01*
G01X17465Y29745D01*
G01X17467Y29868D01*
G01X17466Y29974D01*
G01X17464Y30056D01*
G01X17459Y30121D01*
G01X17451Y30171D01*
G01X17440Y30208D01*
G01X17423Y30239D01*
G01X17401Y30265D01*
G01X17372Y30290D01*
G01X17326Y30323D01*
G01X17283Y30345D01*
G01X17241Y30359D01*
G37*

%LPD*%
G54D23*
G01X8890Y34290D02*
G01X8890Y1270D01*
G01X26670Y1270D01*
G01X26670Y34290D01*
G01X8890Y34290D01*
G54D24*
G01X13970Y34290D02*
G01X13970Y35560D01*
G01X13970Y35560D02*
G01X21590Y35560D01*
G01X21590Y35560D02*
G01X21590Y34290D01*
G54D10*
G01X39499Y30375D02*
G01X36245Y30375D01*
G01X36245Y20424D01*
G01X39928Y20424D01*
G01X39928Y30375D01*
G01X39499Y30375D01*
G01X67439Y30375D02*
G01X64185Y30375D01*
G01X64185Y20424D01*
G01X67868Y20424D01*
G01X67868Y30375D01*
G01X67439Y30375D01*
G01X39499Y15135D02*
G01X36245Y15135D01*
G01X36245Y5184D01*
G01X39928Y5184D01*
G01X39928Y15135D01*
G01X39499Y15135D01*
G01X67439Y15135D02*
G01X64185Y15135D01*
G01X64185Y5184D01*
G01X67868Y5184D01*
G01X67868Y15135D01*
G01X67439Y15135D01*
G54D24*
G01X3810Y26670D02*
G01X1295Y26670D01*
G01X1295Y31750D01*
G01X3810Y31750D01*
G01X3810Y26670D01*
G54D10*
G01X54610Y31899D02*
G01X54610Y18899D01*
G01X54610Y18899D02*
G01X49530Y18899D01*
G01X49530Y18899D02*
G01X49530Y31899D01*
G01X49530Y31899D02*
G01X54610Y31899D01*
G01X82550Y31899D02*
G01X82550Y18899D01*
G01X82550Y18899D02*
G01X77470Y18899D01*
G01X77470Y18899D02*
G01X77470Y31899D01*
G01X77470Y31899D02*
G01X82550Y31899D01*
G01X54610Y16659D02*
G01X54610Y3659D01*
G01X54610Y3659D02*
G01X49530Y3659D01*
G01X49530Y3659D02*
G01X49530Y16659D01*
G01X49530Y16659D02*
G01X54610Y16659D01*
G01X82550Y16659D02*
G01X82550Y3659D01*
G01X82550Y3659D02*
G01X77470Y3659D01*
G01X77470Y3659D02*
G01X77470Y16659D01*
G01X77470Y16659D02*
G01X82550Y16659D01*
G54D24*
G01X3810Y24765D02*
G01X3810Y26670D01*
G01X1270Y26670D01*
G01X1270Y1270D01*
G01X3810Y1270D01*
G54D25*
G01X3810Y1270D02*
G01X3810Y24765D01*
G54D24*
G01X1270Y24130D02*
G01X3810Y24130D01*
G54D27*
G01X4889Y30949D02*
G01X4889Y29994D01*
G01X4572Y30949D02*
G01X5209Y30949D01*
G01X5509Y30949D02*
G01X6144Y29994D01*
G01X6144Y30949D02*
G01X5509Y29994D01*
G01X4826Y28447D02*
G01X4826Y27492D01*
G01X4826Y28447D02*
G01X5234Y28447D01*
G01X5372Y28402D01*
G01X5417Y28356D01*
G01X5463Y28265D01*
G01X5463Y28173D01*
G01X5417Y28084D01*
G01X5372Y28039D01*
G01X5234Y27993D01*
G01X4826Y27993D01*
G01X5143Y27993D02*
G01X5463Y27492D01*
G01X5763Y28447D02*
G01X6398Y27492D01*
G01X6398Y28447D02*
G01X5763Y27492D01*
G01X4871Y20561D02*
G01X4871Y20607D01*
G01X4917Y20698D01*
G01X4963Y20744D01*
G01X5052Y20789D01*
G01X5234Y20789D01*
G01X5326Y20744D01*
G01X5372Y20698D01*
G01X5417Y20607D01*
G01X5417Y20515D01*
G01X5372Y20426D01*
G01X5280Y20289D01*
G01X4826Y19834D01*
G01X5463Y19834D01*
G01X4917Y18287D02*
G01X5417Y18287D01*
G01X5143Y17924D01*
G01X5280Y17924D01*
G01X5372Y17879D01*
G01X5417Y17833D01*
G01X5463Y17696D01*
G01X5463Y17604D01*
G01X5417Y17470D01*
G01X5326Y17378D01*
G01X5189Y17332D01*
G01X5052Y17332D01*
G01X4917Y17378D01*
G01X4871Y17424D01*
G01X4826Y17515D01*
G01X5280Y15747D02*
G01X4826Y15110D01*
G01X5506Y15110D01*
G01X5280Y15747D02*
G01X5280Y14792D01*
G01X5372Y13423D02*
G01X4917Y13423D01*
G01X4871Y13014D01*
G01X4917Y13060D01*
G01X5052Y13103D01*
G01X5189Y13103D01*
G01X5326Y13060D01*
G01X5417Y12969D01*
G01X5463Y12832D01*
G01X5463Y12740D01*
G01X5417Y12606D01*
G01X5326Y12514D01*
G01X5189Y12468D01*
G01X5052Y12468D01*
G01X4917Y12514D01*
G01X4871Y12560D01*
G01X4826Y12651D01*
G01X5372Y10530D02*
G01X5326Y10622D01*
G01X5189Y10667D01*
G01X5097Y10667D01*
G01X4963Y10622D01*
G01X4871Y10485D01*
G01X4826Y10259D01*
G01X4826Y10030D01*
G01X4871Y9850D01*
G01X4963Y9758D01*
G01X5097Y9712D01*
G01X5143Y9712D01*
G01X5280Y9758D01*
G01X5372Y9850D01*
G01X5417Y9984D01*
G01X5417Y10030D01*
G01X5372Y10167D01*
G01X5280Y10259D01*
G01X5143Y10304D01*
G01X5097Y10304D01*
G01X4963Y10259D01*
G01X4871Y10167D01*
G01X4826Y10030D01*
G01X5463Y8127D02*
G01X5008Y7172D01*
G01X4826Y8127D02*
G01X5463Y8127D01*
G01X5052Y5587D02*
G01X4917Y5542D01*
G01X4871Y5450D01*
G01X4871Y5359D01*
G01X4917Y5267D01*
G01X5008Y5224D01*
G01X5189Y5179D01*
G01X5326Y5133D01*
G01X5417Y5041D01*
G01X5463Y4950D01*
G01X5463Y4815D01*
G01X5417Y4724D01*
G01X5372Y4678D01*
G01X5234Y4632D01*
G01X5052Y4632D01*
G01X4917Y4678D01*
G01X4871Y4724D01*
G01X4826Y4815D01*
G01X4826Y4950D01*
G01X4871Y5041D01*
G01X4963Y5133D01*
G01X5097Y5179D01*
G01X5280Y5224D01*
G01X5372Y5267D01*
G01X5417Y5359D01*
G01X5417Y5450D01*
G01X5372Y5542D01*
G01X5234Y5587D01*
G01X5052Y5587D01*
G01X5417Y2727D02*
G01X5372Y2593D01*
G01X5280Y2501D01*
G01X5143Y2456D01*
G01X5097Y2456D01*
G01X4963Y2501D01*
G01X4871Y2593D01*
G01X4826Y2727D01*
G01X4826Y2773D01*
G01X4871Y2910D01*
G01X4963Y3002D01*
G01X5097Y3047D01*
G01X5143Y3047D01*
G01X5280Y3002D01*
G01X5372Y2910D01*
G01X5417Y2727D01*
G01X5417Y2501D01*
G01X5372Y2275D01*
G01X5280Y2138D01*
G01X5143Y2092D01*
G01X5052Y2092D01*
G01X4917Y2138D01*
G01X4871Y2230D01*
G01X46228Y30949D02*
G01X46591Y29994D01*
G01X46954Y30949D02*
G01X46591Y29994D01*
G01X47937Y30721D02*
G01X47891Y30812D01*
G01X47800Y30904D01*
G01X47708Y30949D01*
G01X47528Y30949D01*
G01X47437Y30904D01*
G01X47345Y30812D01*
G01X47299Y30721D01*
G01X47254Y30586D01*
G01X47254Y30358D01*
G01X47299Y30220D01*
G01X47345Y30132D01*
G01X47437Y30040D01*
G01X47528Y29994D01*
G01X47708Y29994D01*
G01X47800Y30040D01*
G01X47891Y30132D01*
G01X47937Y30220D01*
G01X48917Y30721D02*
G01X48874Y30812D01*
G01X48783Y30904D01*
G01X48691Y30949D01*
G01X48508Y30949D01*
G01X48420Y30904D01*
G01X48328Y30812D01*
G01X48282Y30721D01*
G01X48237Y30586D01*
G01X48237Y30358D01*
G01X48282Y30220D01*
G01X48328Y30132D01*
G01X48420Y30040D01*
G01X48508Y29994D01*
G01X48691Y29994D01*
G01X48783Y30040D01*
G01X48874Y30132D01*
G01X48917Y30220D01*
G01X55798Y30759D02*
G01X55755Y30850D01*
G01X55664Y30942D01*
G01X55572Y30987D01*
G01X55389Y30987D01*
G01X55300Y30942D01*
G01X55209Y30850D01*
G01X55163Y30759D01*
G01X55118Y30624D01*
G01X55118Y30396D01*
G01X55163Y30258D01*
G01X55209Y30170D01*
G01X55300Y30078D01*
G01X55389Y30032D01*
G01X55572Y30032D01*
G01X55664Y30078D01*
G01X55755Y30170D01*
G01X55798Y30258D01*
G01X55798Y30396D01*
G01X55572Y30396D02*
G01X55798Y30396D01*
G01X56100Y30987D02*
G01X56100Y30032D01*
G01X56100Y30987D02*
G01X56735Y30032D01*
G01X56735Y30987D02*
G01X56735Y30032D01*
G01X57035Y30987D02*
G01X57035Y30032D01*
G01X57035Y30987D02*
G01X57353Y30987D01*
G01X57490Y30942D01*
G01X57581Y30850D01*
G01X57627Y30759D01*
G01X57673Y30624D01*
G01X57673Y30396D01*
G01X57627Y30258D01*
G01X57581Y30170D01*
G01X57490Y30078D01*
G01X57353Y30032D01*
G01X57035Y30032D01*
G01X47769Y28409D02*
G01X47635Y28364D01*
G01X47543Y28227D01*
G01X47498Y28000D01*
G01X47498Y27863D01*
G01X47543Y27637D01*
G01X47635Y27500D01*
G01X47769Y27454D01*
G01X47861Y27454D01*
G01X47998Y27500D01*
G01X48089Y27637D01*
G01X48135Y27863D01*
G01X48135Y28000D01*
G01X48089Y28227D01*
G01X47998Y28364D01*
G01X47861Y28409D01*
G01X47769Y28409D01*
G01X48435Y28227D02*
G01X48524Y28272D01*
G01X48661Y28409D01*
G01X48661Y27454D01*
G01X47515Y25907D02*
G01X47381Y25862D01*
G01X47289Y25725D01*
G01X47244Y25499D01*
G01X47244Y25361D01*
G01X47289Y25135D01*
G01X47381Y24998D01*
G01X47515Y24952D01*
G01X47607Y24952D01*
G01X47744Y24998D01*
G01X47835Y25135D01*
G01X47881Y25361D01*
G01X47881Y25499D01*
G01X47835Y25725D01*
G01X47744Y25862D01*
G01X47607Y25907D01*
G01X47515Y25907D01*
G01X48270Y25907D02*
G01X48770Y25907D01*
G01X48498Y25544D01*
G01X48635Y25544D01*
G01X48724Y25499D01*
G01X48770Y25453D01*
G01X48816Y25316D01*
G01X48816Y25224D01*
G01X48770Y25090D01*
G01X48679Y24998D01*
G01X48544Y24952D01*
G01X48407Y24952D01*
G01X48270Y24998D01*
G01X48226Y25044D01*
G01X48181Y25135D01*
G01X47515Y23367D02*
G01X47381Y23322D01*
G01X47289Y23185D01*
G01X47244Y22959D01*
G01X47244Y22821D01*
G01X47289Y22595D01*
G01X47381Y22458D01*
G01X47515Y22412D01*
G01X47607Y22412D01*
G01X47744Y22458D01*
G01X47835Y22595D01*
G01X47881Y22821D01*
G01X47881Y22959D01*
G01X47835Y23185D01*
G01X47744Y23322D01*
G01X47607Y23367D01*
G01X47515Y23367D01*
G01X48724Y23367D02*
G01X48270Y23367D01*
G01X48226Y22959D01*
G01X48270Y23004D01*
G01X48407Y23047D01*
G01X48544Y23047D01*
G01X48679Y23004D01*
G01X48770Y22913D01*
G01X48816Y22776D01*
G01X48816Y22684D01*
G01X48770Y22550D01*
G01X48679Y22458D01*
G01X48544Y22412D01*
G01X48407Y22412D01*
G01X48270Y22458D01*
G01X48226Y22504D01*
G01X48181Y22595D01*
G01X47515Y20827D02*
G01X47381Y20782D01*
G01X47289Y20645D01*
G01X47244Y20419D01*
G01X47244Y20281D01*
G01X47289Y20055D01*
G01X47381Y19918D01*
G01X47515Y19872D01*
G01X47607Y19872D01*
G01X47744Y19918D01*
G01X47835Y20055D01*
G01X47881Y20281D01*
G01X47881Y20419D01*
G01X47835Y20645D01*
G01X47744Y20782D01*
G01X47607Y20827D01*
G01X47515Y20827D01*
G01X48816Y20827D02*
G01X48361Y19872D01*
G01X48181Y20827D02*
G01X48816Y20827D01*
G01X55643Y28447D02*
G01X55509Y28402D01*
G01X55417Y28265D01*
G01X55372Y28039D01*
G01X55372Y27901D01*
G01X55417Y27675D01*
G01X55509Y27538D01*
G01X55643Y27492D01*
G01X55735Y27492D01*
G01X55872Y27538D01*
G01X55963Y27675D01*
G01X56009Y27901D01*
G01X56009Y28039D01*
G01X55963Y28265D01*
G01X55872Y28402D01*
G01X55735Y28447D01*
G01X55643Y28447D01*
G01X56354Y28219D02*
G01X56354Y28265D01*
G01X56398Y28356D01*
G01X56443Y28402D01*
G01X56535Y28447D01*
G01X56718Y28447D01*
G01X56807Y28402D01*
G01X56852Y28356D01*
G01X56898Y28265D01*
G01X56898Y28173D01*
G01X56852Y28084D01*
G01X56763Y27947D01*
G01X56309Y27492D01*
G01X56944Y27492D01*
G01X55643Y25907D02*
G01X55509Y25862D01*
G01X55417Y25725D01*
G01X55372Y25499D01*
G01X55372Y25361D01*
G01X55417Y25135D01*
G01X55509Y24998D01*
G01X55643Y24952D01*
G01X55735Y24952D01*
G01X55872Y24998D01*
G01X55963Y25135D01*
G01X56009Y25361D01*
G01X56009Y25499D01*
G01X55963Y25725D01*
G01X55872Y25862D01*
G01X55735Y25907D01*
G01X55643Y25907D01*
G01X56763Y25907D02*
G01X56309Y25270D01*
G01X56989Y25270D01*
G01X56763Y25907D02*
G01X56763Y24952D01*
G01X55643Y23367D02*
G01X55509Y23322D01*
G01X55417Y23185D01*
G01X55372Y22959D01*
G01X55372Y22821D01*
G01X55417Y22595D01*
G01X55509Y22458D01*
G01X55643Y22412D01*
G01X55735Y22412D01*
G01X55872Y22458D01*
G01X55963Y22595D01*
G01X56009Y22821D01*
G01X56009Y22959D01*
G01X55963Y23185D01*
G01X55872Y23322D01*
G01X55735Y23367D01*
G01X55643Y23367D01*
G01X56852Y23230D02*
G01X56807Y23322D01*
G01X56672Y23367D01*
G01X56581Y23367D01*
G01X56443Y23322D01*
G01X56354Y23185D01*
G01X56309Y22959D01*
G01X56309Y22730D01*
G01X56354Y22550D01*
G01X56443Y22458D01*
G01X56581Y22412D01*
G01X56626Y22412D01*
G01X56763Y22458D01*
G01X56852Y22550D01*
G01X56898Y22684D01*
G01X56898Y22730D01*
G01X56852Y22867D01*
G01X56763Y22959D01*
G01X56626Y23004D01*
G01X56581Y23004D01*
G01X56443Y22959D01*
G01X56354Y22867D01*
G01X56309Y22730D01*
G01X55643Y20827D02*
G01X55509Y20782D01*
G01X55417Y20645D01*
G01X55372Y20419D01*
G01X55372Y20281D01*
G01X55417Y20055D01*
G01X55509Y19918D01*
G01X55643Y19872D01*
G01X55735Y19872D01*
G01X55872Y19918D01*
G01X55963Y20055D01*
G01X56009Y20281D01*
G01X56009Y20419D01*
G01X55963Y20645D01*
G01X55872Y20782D01*
G01X55735Y20827D01*
G01X55643Y20827D01*
G01X56535Y20827D02*
G01X56398Y20782D01*
G01X56354Y20690D01*
G01X56354Y20599D01*
G01X56398Y20507D01*
G01X56489Y20464D01*
G01X56672Y20419D01*
G01X56807Y20373D01*
G01X56898Y20281D01*
G01X56944Y20190D01*
G01X56944Y20055D01*
G01X56898Y19964D01*
G01X56852Y19918D01*
G01X56718Y19872D01*
G01X56535Y19872D01*
G01X56398Y19918D01*
G01X56354Y19964D01*
G01X56309Y20055D01*
G01X56309Y20190D01*
G01X56354Y20281D01*
G01X56443Y20373D01*
G01X56581Y20419D01*
G01X56763Y20464D01*
G01X56852Y20507D01*
G01X56898Y20599D01*
G01X56898Y20690D01*
G01X56852Y20782D01*
G01X56718Y20827D01*
G01X56535Y20827D01*
G01X46228Y15709D02*
G01X46591Y14754D01*
G01X46954Y15709D02*
G01X46591Y14754D01*
G01X47937Y15481D02*
G01X47891Y15572D01*
G01X47800Y15664D01*
G01X47708Y15709D01*
G01X47528Y15709D01*
G01X47437Y15664D01*
G01X47345Y15572D01*
G01X47299Y15481D01*
G01X47254Y15346D01*
G01X47254Y15118D01*
G01X47299Y14980D01*
G01X47345Y14892D01*
G01X47437Y14800D01*
G01X47528Y14754D01*
G01X47708Y14754D01*
G01X47800Y14800D01*
G01X47891Y14892D01*
G01X47937Y14980D01*
G01X48917Y15481D02*
G01X48874Y15572D01*
G01X48783Y15664D01*
G01X48691Y15709D01*
G01X48508Y15709D01*
G01X48420Y15664D01*
G01X48328Y15572D01*
G01X48282Y15481D01*
G01X48237Y15346D01*
G01X48237Y15118D01*
G01X48282Y14980D01*
G01X48328Y14892D01*
G01X48420Y14800D01*
G01X48508Y14754D01*
G01X48691Y14754D01*
G01X48783Y14800D01*
G01X48874Y14892D01*
G01X48917Y14980D01*
G01X47498Y12987D02*
G01X47589Y13032D01*
G01X47724Y13169D01*
G01X47724Y12214D01*
G01X48661Y13169D02*
G01X48206Y12214D01*
G01X48026Y13169D02*
G01X48661Y13169D01*
G01X47244Y10485D02*
G01X47335Y10530D01*
G01X47470Y10668D01*
G01X47470Y9712D01*
G01X48361Y10347D02*
G01X48315Y10213D01*
G01X48226Y10121D01*
G01X48089Y10076D01*
G01X48044Y10076D01*
G01X47906Y10121D01*
G01X47815Y10213D01*
G01X47772Y10347D01*
G01X47772Y10393D01*
G01X47815Y10530D01*
G01X47906Y10622D01*
G01X48044Y10668D01*
G01X48089Y10668D01*
G01X48226Y10622D01*
G01X48315Y10530D01*
G01X48361Y10347D01*
G01X48361Y10121D01*
G01X48315Y9895D01*
G01X48226Y9758D01*
G01X48089Y9712D01*
G01X47998Y9712D01*
G01X47861Y9758D01*
G01X47815Y9850D01*
G01X47289Y7899D02*
G01X47289Y7945D01*
G01X47335Y8036D01*
G01X47381Y8082D01*
G01X47470Y8128D01*
G01X47652Y8128D01*
G01X47744Y8082D01*
G01X47790Y8036D01*
G01X47835Y7945D01*
G01X47835Y7853D01*
G01X47790Y7764D01*
G01X47698Y7627D01*
G01X47244Y7172D01*
G01X47881Y7172D01*
G01X48181Y7945D02*
G01X48270Y7990D01*
G01X48407Y8128D01*
G01X48407Y7172D01*
G01X47289Y5359D02*
G01X47289Y5405D01*
G01X47335Y5496D01*
G01X47381Y5542D01*
G01X47470Y5588D01*
G01X47652Y5588D01*
G01X47744Y5542D01*
G01X47790Y5496D01*
G01X47835Y5405D01*
G01X47835Y5313D01*
G01X47790Y5224D01*
G01X47698Y5087D01*
G01X47244Y4632D01*
G01X47881Y4632D01*
G01X48270Y5588D02*
G01X48770Y5588D01*
G01X48498Y5224D01*
G01X48635Y5224D01*
G01X48724Y5179D01*
G01X48770Y5133D01*
G01X48816Y4996D01*
G01X48816Y4904D01*
G01X48770Y4770D01*
G01X48679Y4678D01*
G01X48544Y4632D01*
G01X48407Y4632D01*
G01X48270Y4678D01*
G01X48226Y4724D01*
G01X48181Y4815D01*
G01X55417Y5321D02*
G01X55417Y5367D01*
G01X55463Y5458D01*
G01X55509Y5504D01*
G01X55598Y5549D01*
G01X55780Y5549D01*
G01X55872Y5504D01*
G01X55918Y5458D01*
G01X55963Y5367D01*
G01X55963Y5275D01*
G01X55918Y5186D01*
G01X55826Y5049D01*
G01X55372Y4594D01*
G01X56009Y4594D01*
G01X56763Y5549D02*
G01X56309Y4912D01*
G01X56989Y4912D01*
G01X56763Y5549D02*
G01X56763Y4594D01*
G01X55417Y7899D02*
G01X55417Y7945D01*
G01X55463Y8036D01*
G01X55509Y8082D01*
G01X55598Y8128D01*
G01X55780Y8128D01*
G01X55872Y8082D01*
G01X55918Y8036D01*
G01X55963Y7945D01*
G01X55963Y7853D01*
G01X55918Y7764D01*
G01X55826Y7627D01*
G01X55372Y7172D01*
G01X56009Y7172D01*
G01X56354Y7899D02*
G01X56354Y7945D01*
G01X56398Y8036D01*
G01X56443Y8082D01*
G01X56535Y8128D01*
G01X56718Y8128D01*
G01X56807Y8082D01*
G01X56852Y8036D01*
G01X56898Y7945D01*
G01X56898Y7853D01*
G01X56852Y7764D01*
G01X56763Y7627D01*
G01X56309Y7172D01*
G01X56944Y7172D01*
G01X55417Y10439D02*
G01X55417Y10485D01*
G01X55463Y10576D01*
G01X55509Y10622D01*
G01X55598Y10668D01*
G01X55780Y10668D01*
G01X55872Y10622D01*
G01X55918Y10576D01*
G01X55963Y10485D01*
G01X55963Y10393D01*
G01X55918Y10304D01*
G01X55826Y10167D01*
G01X55372Y9712D01*
G01X56009Y9712D01*
G01X56581Y10668D02*
G01X56443Y10622D01*
G01X56354Y10485D01*
G01X56309Y10259D01*
G01X56309Y10121D01*
G01X56354Y9895D01*
G01X56443Y9758D01*
G01X56581Y9712D01*
G01X56672Y9712D01*
G01X56807Y9758D01*
G01X56898Y9895D01*
G01X56944Y10121D01*
G01X56944Y10259D01*
G01X56898Y10485D01*
G01X56807Y10622D01*
G01X56672Y10668D01*
G01X56581Y10668D01*
G01X55372Y13025D02*
G01X55463Y13070D01*
G01X55598Y13208D01*
G01X55598Y12252D01*
G01X56126Y13208D02*
G01X55989Y13162D01*
G01X55943Y13070D01*
G01X55943Y12979D01*
G01X55989Y12887D01*
G01X56080Y12844D01*
G01X56263Y12799D01*
G01X56398Y12753D01*
G01X56489Y12661D01*
G01X56535Y12570D01*
G01X56535Y12435D01*
G01X56489Y12344D01*
G01X56443Y12298D01*
G01X56309Y12252D01*
G01X56126Y12252D01*
G01X55989Y12298D01*
G01X55943Y12344D01*
G01X55900Y12435D01*
G01X55900Y12570D01*
G01X55943Y12661D01*
G01X56034Y12753D01*
G01X56172Y12799D01*
G01X56354Y12844D01*
G01X56443Y12887D01*
G01X56489Y12979D01*
G01X56489Y13070D01*
G01X56443Y13162D01*
G01X56309Y13208D01*
G01X56126Y13208D01*
G01X55798Y15519D02*
G01X55755Y15610D01*
G01X55664Y15702D01*
G01X55572Y15747D01*
G01X55389Y15747D01*
G01X55300Y15702D01*
G01X55209Y15610D01*
G01X55163Y15519D01*
G01X55118Y15384D01*
G01X55118Y15156D01*
G01X55163Y15018D01*
G01X55209Y14930D01*
G01X55300Y14838D01*
G01X55389Y14792D01*
G01X55572Y14792D01*
G01X55664Y14838D01*
G01X55755Y14930D01*
G01X55798Y15018D01*
G01X55798Y15156D01*
G01X55572Y15156D02*
G01X55798Y15156D01*
G01X56100Y15747D02*
G01X56100Y14792D01*
G01X56100Y15747D02*
G01X56735Y14792D01*
G01X56735Y15747D02*
G01X56735Y14792D01*
G01X57035Y15747D02*
G01X57035Y14792D01*
G01X57035Y15747D02*
G01X57353Y15747D01*
G01X57490Y15702D01*
G01X57581Y15610D01*
G01X57627Y15519D01*
G01X57673Y15384D01*
G01X57673Y15156D01*
G01X57627Y15018D01*
G01X57581Y14930D01*
G01X57490Y14838D01*
G01X57353Y14792D01*
G01X57035Y14792D01*
G01X74168Y15709D02*
G01X74531Y14754D01*
G01X74894Y15709D02*
G01X74531Y14754D01*
G01X75877Y15481D02*
G01X75831Y15572D01*
G01X75740Y15664D01*
G01X75648Y15709D01*
G01X75468Y15709D01*
G01X75377Y15664D01*
G01X75285Y15572D01*
G01X75239Y15481D01*
G01X75194Y15346D01*
G01X75194Y15118D01*
G01X75239Y14980D01*
G01X75285Y14892D01*
G01X75377Y14800D01*
G01X75468Y14754D01*
G01X75648Y14754D01*
G01X75740Y14800D01*
G01X75831Y14892D01*
G01X75877Y14980D01*
G01X76857Y15481D02*
G01X76814Y15572D01*
G01X76723Y15664D01*
G01X76631Y15709D01*
G01X76448Y15709D01*
G01X76360Y15664D01*
G01X76268Y15572D01*
G01X76222Y15481D01*
G01X76177Y15346D01*
G01X76177Y15118D01*
G01X76222Y14980D01*
G01X76268Y14892D01*
G01X76360Y14800D01*
G01X76448Y14754D01*
G01X76631Y14754D01*
G01X76723Y14800D01*
G01X76814Y14892D01*
G01X76857Y14980D01*
G01X75483Y12941D02*
G01X75483Y12987D01*
G01X75529Y13078D01*
G01X75575Y13124D01*
G01X75664Y13169D01*
G01X75846Y13169D01*
G01X75938Y13124D01*
G01X75984Y13078D01*
G01X76029Y12987D01*
G01X76029Y12895D01*
G01X75984Y12806D01*
G01X75892Y12669D01*
G01X75438Y12214D01*
G01X76075Y12214D01*
G01X76918Y13169D02*
G01X76464Y13169D01*
G01X76420Y12760D01*
G01X76464Y12806D01*
G01X76601Y12849D01*
G01X76738Y12849D01*
G01X76873Y12806D01*
G01X76964Y12715D01*
G01X77010Y12578D01*
G01X77010Y12486D01*
G01X76964Y12352D01*
G01X76873Y12260D01*
G01X76738Y12214D01*
G01X76601Y12214D01*
G01X76464Y12260D01*
G01X76420Y12306D01*
G01X76375Y12397D01*
G01X75229Y10439D02*
G01X75229Y10485D01*
G01X75275Y10576D01*
G01X75321Y10622D01*
G01X75410Y10668D01*
G01X75592Y10668D01*
G01X75684Y10622D01*
G01X75730Y10576D01*
G01X75775Y10485D01*
G01X75775Y10393D01*
G01X75730Y10304D01*
G01X75638Y10167D01*
G01X75184Y9712D01*
G01X75821Y9712D01*
G01X76756Y10668D02*
G01X76301Y9712D01*
G01X76121Y10668D02*
G01X76756Y10668D01*
G01X75229Y7899D02*
G01X75229Y7945D01*
G01X75275Y8036D01*
G01X75321Y8082D01*
G01X75410Y8128D01*
G01X75592Y8128D01*
G01X75684Y8082D01*
G01X75730Y8036D01*
G01X75775Y7945D01*
G01X75775Y7853D01*
G01X75730Y7764D01*
G01X75638Y7627D01*
G01X75184Y7172D01*
G01X75821Y7172D01*
G01X76710Y7807D02*
G01X76664Y7673D01*
G01X76575Y7581D01*
G01X76438Y7536D01*
G01X76393Y7536D01*
G01X76255Y7581D01*
G01X76166Y7673D01*
G01X76121Y7807D01*
G01X76121Y7853D01*
G01X76166Y7990D01*
G01X76255Y8082D01*
G01X76393Y8128D01*
G01X76438Y8128D01*
G01X76575Y8082D01*
G01X76664Y7990D01*
G01X76710Y7807D01*
G01X76710Y7581D01*
G01X76664Y7355D01*
G01X76575Y7218D01*
G01X76438Y7172D01*
G01X76347Y7172D01*
G01X76210Y7218D01*
G01X76166Y7310D01*
G01X75275Y5588D02*
G01X75775Y5588D01*
G01X75501Y5224D01*
G01X75638Y5224D01*
G01X75730Y5179D01*
G01X75775Y5133D01*
G01X75821Y4996D01*
G01X75821Y4904D01*
G01X75775Y4770D01*
G01X75684Y4678D01*
G01X75547Y4632D01*
G01X75410Y4632D01*
G01X75275Y4678D01*
G01X75229Y4724D01*
G01X75184Y4815D01*
G01X76121Y5405D02*
G01X76210Y5450D01*
G01X76347Y5588D01*
G01X76347Y4632D01*
G01X83403Y5588D02*
G01X83903Y5588D01*
G01X83629Y5224D01*
G01X83766Y5224D01*
G01X83858Y5179D01*
G01X83903Y5133D01*
G01X83949Y4996D01*
G01X83949Y4904D01*
G01X83903Y4770D01*
G01X83812Y4678D01*
G01X83675Y4632D01*
G01X83538Y4632D01*
G01X83403Y4678D01*
G01X83357Y4724D01*
G01X83312Y4815D01*
G01X84294Y5359D02*
G01X84294Y5405D01*
G01X84338Y5496D01*
G01X84383Y5542D01*
G01X84475Y5588D01*
G01X84658Y5588D01*
G01X84747Y5542D01*
G01X84792Y5496D01*
G01X84838Y5405D01*
G01X84838Y5313D01*
G01X84792Y5224D01*
G01X84703Y5087D01*
G01X84249Y4632D01*
G01X84884Y4632D01*
G01X83403Y8128D02*
G01X83903Y8128D01*
G01X83629Y7764D01*
G01X83766Y7764D01*
G01X83858Y7719D01*
G01X83903Y7673D01*
G01X83949Y7536D01*
G01X83949Y7444D01*
G01X83903Y7310D01*
G01X83812Y7218D01*
G01X83675Y7172D01*
G01X83538Y7172D01*
G01X83403Y7218D01*
G01X83357Y7264D01*
G01X83312Y7355D01*
G01X84521Y8128D02*
G01X84383Y8082D01*
G01X84294Y7945D01*
G01X84249Y7719D01*
G01X84249Y7581D01*
G01X84294Y7355D01*
G01X84383Y7218D01*
G01X84521Y7172D01*
G01X84612Y7172D01*
G01X84747Y7218D01*
G01X84838Y7355D01*
G01X84884Y7581D01*
G01X84884Y7719D01*
G01X84838Y7945D01*
G01X84747Y8082D01*
G01X84612Y8128D01*
G01X84521Y8128D01*
G01X83357Y10439D02*
G01X83357Y10485D01*
G01X83403Y10576D01*
G01X83449Y10622D01*
G01X83538Y10668D01*
G01X83720Y10668D01*
G01X83812Y10622D01*
G01X83858Y10576D01*
G01X83903Y10485D01*
G01X83903Y10393D01*
G01X83858Y10304D01*
G01X83766Y10167D01*
G01X83312Y9712D01*
G01X83949Y9712D01*
G01X84475Y10668D02*
G01X84338Y10622D01*
G01X84294Y10530D01*
G01X84294Y10439D01*
G01X84338Y10347D01*
G01X84429Y10304D01*
G01X84612Y10259D01*
G01X84747Y10213D01*
G01X84838Y10121D01*
G01X84884Y10030D01*
G01X84884Y9895D01*
G01X84838Y9804D01*
G01X84792Y9758D01*
G01X84658Y9712D01*
G01X84475Y9712D01*
G01X84338Y9758D01*
G01X84294Y9804D01*
G01X84249Y9895D01*
G01X84249Y10030D01*
G01X84294Y10121D01*
G01X84383Y10213D01*
G01X84521Y10259D01*
G01X84703Y10304D01*
G01X84792Y10347D01*
G01X84838Y10439D01*
G01X84838Y10530D01*
G01X84792Y10622D01*
G01X84658Y10668D01*
G01X84475Y10668D01*
G01X83357Y12979D02*
G01X83357Y13025D01*
G01X83403Y13116D01*
G01X83449Y13162D01*
G01X83538Y13208D01*
G01X83720Y13208D01*
G01X83812Y13162D01*
G01X83858Y13116D01*
G01X83903Y13025D01*
G01X83903Y12933D01*
G01X83858Y12844D01*
G01X83766Y12707D01*
G01X83312Y12252D01*
G01X83949Y12252D01*
G01X84792Y13070D02*
G01X84747Y13162D01*
G01X84612Y13208D01*
G01X84521Y13208D01*
G01X84383Y13162D01*
G01X84294Y13025D01*
G01X84249Y12799D01*
G01X84249Y12570D01*
G01X84294Y12390D01*
G01X84383Y12298D01*
G01X84521Y12252D01*
G01X84566Y12252D01*
G01X84703Y12298D01*
G01X84792Y12390D01*
G01X84838Y12524D01*
G01X84838Y12570D01*
G01X84792Y12707D01*
G01X84703Y12799D01*
G01X84566Y12844D01*
G01X84521Y12844D01*
G01X84383Y12799D01*
G01X84294Y12707D01*
G01X84249Y12570D01*
G01X83738Y15519D02*
G01X83695Y15610D01*
G01X83604Y15702D01*
G01X83512Y15747D01*
G01X83329Y15747D01*
G01X83240Y15702D01*
G01X83149Y15610D01*
G01X83103Y15519D01*
G01X83058Y15384D01*
G01X83058Y15156D01*
G01X83103Y15018D01*
G01X83149Y14930D01*
G01X83240Y14838D01*
G01X83329Y14792D01*
G01X83512Y14792D01*
G01X83604Y14838D01*
G01X83695Y14930D01*
G01X83738Y15018D01*
G01X83738Y15156D01*
G01X83512Y15156D02*
G01X83738Y15156D01*
G01X84040Y15747D02*
G01X84040Y14792D01*
G01X84040Y15747D02*
G01X84675Y14792D01*
G01X84675Y15747D02*
G01X84675Y14792D01*
G01X84975Y15747D02*
G01X84975Y14792D01*
G01X84975Y15747D02*
G01X85293Y15747D01*
G01X85430Y15702D01*
G01X85521Y15610D01*
G01X85567Y15519D01*
G01X85613Y15384D01*
G01X85613Y15156D01*
G01X85567Y15018D01*
G01X85521Y14930D01*
G01X85430Y14838D01*
G01X85293Y14792D01*
G01X84975Y14792D01*
G01X74168Y30949D02*
G01X74531Y29994D01*
G01X74894Y30949D02*
G01X74531Y29994D01*
G01X75877Y30721D02*
G01X75831Y30812D01*
G01X75740Y30904D01*
G01X75648Y30949D01*
G01X75468Y30949D01*
G01X75377Y30904D01*
G01X75285Y30812D01*
G01X75239Y30721D01*
G01X75194Y30586D01*
G01X75194Y30358D01*
G01X75239Y30220D01*
G01X75285Y30132D01*
G01X75377Y30040D01*
G01X75468Y29994D01*
G01X75648Y29994D01*
G01X75740Y30040D01*
G01X75831Y30132D01*
G01X75877Y30220D01*
G01X76857Y30721D02*
G01X76814Y30812D01*
G01X76723Y30904D01*
G01X76631Y30949D01*
G01X76448Y30949D01*
G01X76360Y30904D01*
G01X76268Y30812D01*
G01X76222Y30721D01*
G01X76177Y30586D01*
G01X76177Y30358D01*
G01X76222Y30220D01*
G01X76268Y30132D01*
G01X76360Y30040D01*
G01X76448Y29994D01*
G01X76631Y29994D01*
G01X76723Y30040D01*
G01X76814Y30132D01*
G01X76857Y30220D01*
G01X75709Y28409D02*
G01X75575Y28364D01*
G01X75483Y28227D01*
G01X75438Y28000D01*
G01X75438Y27863D01*
G01X75483Y27637D01*
G01X75575Y27500D01*
G01X75709Y27454D01*
G01X75801Y27454D01*
G01X75938Y27500D01*
G01X76029Y27637D01*
G01X76075Y27863D01*
G01X76075Y28000D01*
G01X76029Y28227D01*
G01X75938Y28364D01*
G01X75801Y28409D01*
G01X75709Y28409D01*
G01X76964Y28089D02*
G01X76918Y27955D01*
G01X76829Y27863D01*
G01X76692Y27818D01*
G01X76647Y27818D01*
G01X76509Y27863D01*
G01X76420Y27955D01*
G01X76375Y28089D01*
G01X76375Y28135D01*
G01X76420Y28272D01*
G01X76509Y28364D01*
G01X76647Y28409D01*
G01X76692Y28409D01*
G01X76829Y28364D01*
G01X76918Y28272D01*
G01X76964Y28089D01*
G01X76964Y27863D01*
G01X76918Y27637D01*
G01X76829Y27500D01*
G01X76692Y27454D01*
G01X76601Y27454D01*
G01X76464Y27500D01*
G01X76420Y27592D01*
G01X75184Y25725D02*
G01X75275Y25770D01*
G01X75410Y25908D01*
G01X75410Y24952D01*
G01X75712Y25725D02*
G01X75801Y25770D01*
G01X75938Y25908D01*
G01X75938Y24952D01*
G01X75184Y23185D02*
G01X75275Y23230D01*
G01X75410Y23368D01*
G01X75410Y22412D01*
G01X75801Y23368D02*
G01X76301Y23368D01*
G01X76029Y23004D01*
G01X76166Y23004D01*
G01X76255Y22959D01*
G01X76301Y22913D01*
G01X76347Y22776D01*
G01X76347Y22684D01*
G01X76301Y22550D01*
G01X76210Y22458D01*
G01X76075Y22412D01*
G01X75938Y22412D01*
G01X75801Y22458D01*
G01X75755Y22504D01*
G01X75712Y22595D01*
G01X75184Y20645D02*
G01X75275Y20690D01*
G01X75410Y20828D01*
G01X75410Y19872D01*
G01X76255Y20828D02*
G01X75801Y20828D01*
G01X75755Y20419D01*
G01X75801Y20464D01*
G01X75938Y20507D01*
G01X76075Y20507D01*
G01X76210Y20464D01*
G01X76301Y20373D01*
G01X76347Y20236D01*
G01X76347Y20144D01*
G01X76301Y20010D01*
G01X76210Y19918D01*
G01X76075Y19872D01*
G01X75938Y19872D01*
G01X75801Y19918D01*
G01X75755Y19964D01*
G01X75712Y20055D01*
G01X83312Y20645D02*
G01X83403Y20690D01*
G01X83538Y20828D01*
G01X83538Y19872D01*
G01X84383Y20690D02*
G01X84338Y20782D01*
G01X84203Y20828D01*
G01X84112Y20828D01*
G01X83974Y20782D01*
G01X83883Y20645D01*
G01X83840Y20419D01*
G01X83840Y20190D01*
G01X83883Y20010D01*
G01X83974Y19918D01*
G01X84112Y19872D01*
G01X84157Y19872D01*
G01X84294Y19918D01*
G01X84383Y20010D01*
G01X84429Y20144D01*
G01X84429Y20190D01*
G01X84383Y20327D01*
G01X84294Y20419D01*
G01X84157Y20464D01*
G01X84112Y20464D01*
G01X83974Y20419D01*
G01X83883Y20327D01*
G01X83840Y20190D01*
G01X83312Y23185D02*
G01X83403Y23230D01*
G01X83538Y23368D01*
G01X83538Y22412D01*
G01X84294Y23368D02*
G01X83840Y22730D01*
G01X84521Y22730D01*
G01X84294Y23368D02*
G01X84294Y22412D01*
G01X83312Y25725D02*
G01X83403Y25770D01*
G01X83538Y25908D01*
G01X83538Y24952D01*
G01X83883Y25679D02*
G01X83883Y25725D01*
G01X83929Y25816D01*
G01X83974Y25862D01*
G01X84066Y25908D01*
G01X84249Y25908D01*
G01X84338Y25862D01*
G01X84383Y25816D01*
G01X84429Y25725D01*
G01X84429Y25633D01*
G01X84383Y25544D01*
G01X84294Y25407D01*
G01X83840Y24952D01*
G01X84475Y24952D01*
G01X83312Y28265D02*
G01X83403Y28310D01*
G01X83538Y28448D01*
G01X83538Y27492D01*
G01X84112Y28448D02*
G01X83974Y28402D01*
G01X83883Y28265D01*
G01X83840Y28039D01*
G01X83840Y27901D01*
G01X83883Y27675D01*
G01X83974Y27538D01*
G01X84112Y27492D01*
G01X84203Y27492D01*
G01X84338Y27538D01*
G01X84429Y27675D01*
G01X84475Y27901D01*
G01X84475Y28039D01*
G01X84429Y28265D01*
G01X84338Y28402D01*
G01X84203Y28448D01*
G01X84112Y28448D01*
G01X83738Y30759D02*
G01X83695Y30850D01*
G01X83604Y30942D01*
G01X83512Y30987D01*
G01X83329Y30987D01*
G01X83240Y30942D01*
G01X83149Y30850D01*
G01X83103Y30759D01*
G01X83058Y30624D01*
G01X83058Y30396D01*
G01X83103Y30258D01*
G01X83149Y30170D01*
G01X83240Y30078D01*
G01X83329Y30032D01*
G01X83512Y30032D01*
G01X83604Y30078D01*
G01X83695Y30170D01*
G01X83738Y30258D01*
G01X83738Y30396D01*
G01X83512Y30396D02*
G01X83738Y30396D01*
G01X84040Y30987D02*
G01X84040Y30032D01*
G01X84040Y30987D02*
G01X84675Y30032D01*
G01X84675Y30987D02*
G01X84675Y30032D01*
G01X84975Y30987D02*
G01X84975Y30032D01*
G01X84975Y30987D02*
G01X85293Y30987D01*
G01X85430Y30942D01*
G01X85521Y30850D01*
G01X85567Y30759D01*
G01X85613Y30624D01*
G01X85613Y30396D01*
G01X85567Y30258D01*
G01X85521Y30170D01*
G01X85430Y30078D01*
G01X85293Y30032D01*
G01X84975Y30032D01*
G54D26*
G01X44381Y27759D02*
G01X42926Y23942D01*
G01X44381Y27759D02*
G01X45834Y23942D01*
G01X43472Y25214D02*
G01X45290Y25214D01*
G01X45907Y12192D02*
G01X45725Y12555D01*
G01X45361Y12918D01*
G01X44998Y13101D01*
G01X44269Y13101D01*
G01X43906Y12918D01*
G01X43543Y12555D01*
G01X43362Y12192D01*
G01X43180Y11645D01*
G01X43180Y10736D01*
G01X43362Y10193D01*
G01X43543Y9829D01*
G01X43906Y9464D01*
G01X44269Y9283D01*
G01X44998Y9283D01*
G01X45361Y9464D01*
G01X45725Y9829D01*
G01X45907Y10193D01*
G01X70866Y28013D02*
G01X70866Y24196D01*
G01X70866Y28013D02*
G01X72501Y28013D01*
G01X73047Y27830D01*
G01X73230Y27650D01*
G01X73411Y27287D01*
G01X73411Y26921D01*
G01X73230Y26558D01*
G01X73047Y26377D01*
G01X72501Y26195D01*
G01X70866Y26195D02*
G01X72501Y26195D01*
G01X73047Y26014D01*
G01X73230Y25831D01*
G01X73411Y25468D01*
G01X73411Y24922D01*
G01X73230Y24559D01*
G01X73047Y24376D01*
G01X72501Y24196D01*
G01X70866Y24196D01*
G01X71120Y13535D02*
G01X71120Y9718D01*
G01X71120Y13535D02*
G01X72392Y13535D01*
G01X72938Y13352D01*
G01X73301Y12989D01*
G01X73484Y12626D01*
G01X73665Y12080D01*
G01X73665Y11170D01*
G01X73484Y10627D01*
G01X73301Y10264D01*
G01X72938Y9898D01*
G01X72392Y9718D01*
G01X71120Y9718D01*
G54D27*
G01X27541Y20828D02*
G01X27178Y19872D01*
G01X27541Y20828D02*
G01X27904Y19872D01*
G01X27315Y20190D02*
G01X27769Y20190D01*
G01X28295Y20828D02*
G01X28795Y20828D01*
G01X28524Y20464D01*
G01X28658Y20464D01*
G01X28750Y20419D01*
G01X28795Y20373D01*
G01X28841Y20236D01*
G01X28841Y20144D01*
G01X28795Y20010D01*
G01X28704Y19918D01*
G01X28569Y19872D01*
G01X28432Y19872D01*
G01X28295Y19918D01*
G01X28249Y19964D01*
G01X28204Y20055D01*
G01X29842Y20281D02*
G01X30660Y20281D01*
G01X30960Y20690D02*
G01X31686Y20281D01*
G01X30960Y19872D01*
G01X32687Y20828D02*
G01X32687Y19872D01*
G01X32687Y20828D02*
G01X33004Y20828D01*
G01X33141Y20782D01*
G01X33233Y20690D01*
G01X33279Y20599D01*
G01X33322Y20464D01*
G01X33322Y20236D01*
G01X33279Y20099D01*
G01X33233Y20010D01*
G01X33141Y19918D01*
G01X33004Y19872D01*
G01X32687Y19872D01*
G01X27541Y18288D02*
G01X27178Y17332D01*
G01X27541Y18288D02*
G01X27904Y17332D01*
G01X27315Y17650D02*
G01X27769Y17650D01*
G01X28249Y18059D02*
G01X28249Y18105D01*
G01X28295Y18196D01*
G01X28341Y18242D01*
G01X28432Y18288D01*
G01X28613Y18288D01*
G01X28704Y18242D01*
G01X28750Y18196D01*
G01X28795Y18105D01*
G01X28795Y18013D01*
G01X28750Y17924D01*
G01X28658Y17787D01*
G01X28204Y17332D01*
G01X28841Y17332D01*
G01X29842Y17741D02*
G01X30660Y17741D01*
G01X30960Y18150D02*
G01X31686Y17741D01*
G01X30960Y17332D01*
G01X33367Y18059D02*
G01X33322Y18150D01*
G01X33233Y18242D01*
G01X33141Y18288D01*
G01X32959Y18288D01*
G01X32870Y18242D01*
G01X32778Y18150D01*
G01X32732Y18059D01*
G01X32687Y17924D01*
G01X32687Y17696D01*
G01X32732Y17559D01*
G01X32778Y17470D01*
G01X32870Y17378D01*
G01X32959Y17332D01*
G01X33141Y17332D01*
G01X33233Y17378D01*
G01X33322Y17470D01*
G01X33367Y17559D01*
G01X28049Y15709D02*
G01X27686Y14754D01*
G01X28049Y15709D02*
G01X28412Y14754D01*
G01X27823Y15072D02*
G01X28277Y15072D01*
G01X28712Y15527D02*
G01X28803Y15572D01*
G01X28940Y15709D01*
G01X28940Y14754D01*
G01X29941Y15163D02*
G01X30759Y15163D01*
G01X31059Y15572D02*
G01X31785Y15163D01*
G01X31059Y14754D01*
G01X32786Y15709D02*
G01X32786Y14754D01*
G01X32786Y15709D02*
G01X33195Y15709D01*
G01X33332Y15664D01*
G01X33378Y15618D01*
G01X33421Y15527D01*
G01X33421Y15435D01*
G01X33378Y15346D01*
G01X33332Y15300D01*
G01X33195Y15255D01*
G01X32786Y15255D02*
G01X33195Y15255D01*
G01X33332Y15209D01*
G01X33378Y15163D01*
G01X33421Y15072D01*
G01X33421Y14937D01*
G01X33378Y14846D01*
G01X33332Y14800D01*
G01X33195Y14754D01*
G01X32786Y14754D01*
G01X27541Y13169D02*
G01X27178Y12214D01*
G01X27541Y13169D02*
G01X27904Y12214D01*
G01X27315Y12532D02*
G01X27769Y12532D01*
G01X28478Y13169D02*
G01X28341Y13124D01*
G01X28249Y12987D01*
G01X28204Y12760D01*
G01X28204Y12623D01*
G01X28249Y12397D01*
G01X28341Y12260D01*
G01X28478Y12214D01*
G01X28569Y12214D01*
G01X28704Y12260D01*
G01X28795Y12397D01*
G01X28841Y12623D01*
G01X28841Y12760D01*
G01X28795Y12987D01*
G01X28704Y13124D01*
G01X28569Y13169D01*
G01X28478Y13169D01*
G01X29842Y12623D02*
G01X30660Y12623D01*
G01X30960Y13032D02*
G01X31686Y12623D01*
G01X30960Y12214D01*
G01X33050Y13169D02*
G01X32687Y12214D01*
G01X33050Y13169D02*
G01X33413Y12214D01*
G01X32824Y12532D02*
G01X33279Y12532D01*
G01X4572Y25869D02*
G01X4935Y24914D01*
G01X5298Y25869D02*
G01X4935Y24914D01*
G01X6281Y25641D02*
G01X6235Y25732D01*
G01X6144Y25824D01*
G01X6052Y25869D01*
G01X5872Y25869D01*
G01X5781Y25824D01*
G01X5689Y25732D01*
G01X5643Y25641D01*
G01X5598Y25506D01*
G01X5598Y25278D01*
G01X5643Y25140D01*
G01X5689Y25052D01*
G01X5781Y24960D01*
G01X5872Y24914D01*
G01X6052Y24914D01*
G01X6144Y24960D01*
G01X6235Y25052D01*
G01X6281Y25140D01*
G01X7261Y25641D02*
G01X7218Y25732D01*
G01X7127Y25824D01*
G01X7035Y25869D01*
G01X6852Y25869D01*
G01X6764Y25824D01*
G01X6672Y25732D01*
G01X6626Y25641D01*
G01X6581Y25506D01*
G01X6581Y25278D01*
G01X6626Y25140D01*
G01X6672Y25052D01*
G01X6764Y24960D01*
G01X6852Y24914D01*
G01X7035Y24914D01*
G01X7127Y24960D01*
G01X7218Y25052D01*
G01X7261Y25140D01*
G01X5252Y23101D02*
G01X5209Y23192D01*
G01X5118Y23284D01*
G01X5026Y23329D01*
G01X4843Y23329D01*
G01X4754Y23284D01*
G01X4663Y23192D01*
G01X4617Y23101D01*
G01X4572Y22966D01*
G01X4572Y22738D01*
G01X4617Y22600D01*
G01X4663Y22512D01*
G01X4754Y22420D01*
G01X4843Y22374D01*
G01X5026Y22374D01*
G01X5118Y22420D01*
G01X5209Y22512D01*
G01X5252Y22600D01*
G01X5252Y22738D01*
G01X5026Y22738D02*
G01X5252Y22738D01*
G01X5554Y23329D02*
G01X5554Y22374D01*
G01X5554Y23329D02*
G01X6189Y22374D01*
G01X6189Y23329D02*
G01X6189Y22374D01*
G01X6489Y23329D02*
G01X6489Y22374D01*
G01X6489Y23329D02*
G01X6807Y23329D01*
G01X6944Y23284D01*
G01X7035Y23192D01*
G01X7081Y23101D01*
G01X7127Y22966D01*
G01X7127Y22738D01*
G01X7081Y22600D01*
G01X7035Y22512D01*
G01X6944Y22420D01*
G01X6807Y22374D01*
G01X6489Y22374D01*
G54D28*
G01X-11368Y33020D02*
G01X-11368Y26381D01*
G01X-11368Y6638D02*
G01X-11368Y0D01*
G01X-11749Y31496D02*
G01X-11368Y33020D01*
G01X-10987Y31496D01*
G01X-11749Y1524D02*
G01X-11368Y0D01*
G01X-10987Y1524D01*
G01X-12754Y7377D02*
G01X-12754Y8647D01*
G01X-11829Y7954D01*
G01X-11829Y8302D01*
G01X-11715Y8533D01*
G01X-11600Y8647D01*
G01X-11252Y8761D01*
G01X-11021Y8761D01*
G01X-10676Y8647D01*
G01X-10445Y8416D01*
G01X-10330Y8071D01*
G01X-10330Y7723D01*
G01X-10445Y7377D01*
G01X-10559Y7263D01*
G01X-10790Y7146D01*
G01X-12754Y9755D02*
G01X-12754Y11025D01*
G01X-11829Y10334D01*
G01X-11829Y10679D01*
G01X-11715Y10910D01*
G01X-11600Y11025D01*
G01X-11252Y11141D01*
G01X-11021Y11141D01*
G01X-10676Y11025D01*
G01X-10445Y10793D01*
G01X-10330Y10448D01*
G01X-10330Y10103D01*
G01X-10445Y9755D01*
G01X-10559Y9640D01*
G01X-10790Y9523D01*
G01X-10907Y12018D02*
G01X-10790Y11903D01*
G01X-10676Y12018D01*
G01X-10790Y12135D01*
G01X-10907Y12018D01*
G01X-12754Y13587D02*
G01X-12639Y13242D01*
G01X-12291Y13011D01*
G01X-11715Y12897D01*
G01X-11369Y12897D01*
G01X-10790Y13011D01*
G01X-10445Y13242D01*
G01X-10330Y13587D01*
G01X-10330Y13819D01*
G01X-10445Y14167D01*
G01X-10790Y14398D01*
G01X-11369Y14512D01*
G01X-11715Y14512D01*
G01X-12291Y14398D01*
G01X-12639Y14167D01*
G01X-12754Y13819D01*
G01X-12754Y13587D01*
G01X-12177Y15391D02*
G01X-12291Y15391D01*
G01X-12522Y15505D01*
G01X-12639Y15619D01*
G01X-12754Y15851D01*
G01X-12754Y16313D01*
G01X-12639Y16544D01*
G01X-12522Y16661D01*
G01X-12291Y16775D01*
G01X-12060Y16775D01*
G01X-11829Y16661D01*
G01X-11484Y16430D01*
G01X-10330Y15274D01*
G01X-10330Y16889D01*
G01X-12754Y18345D02*
G01X-12639Y17999D01*
G01X-12291Y17768D01*
G01X-11715Y17651D01*
G01X-11369Y17651D01*
G01X-10790Y17768D01*
G01X-10445Y17999D01*
G01X-10330Y18345D01*
G01X-10330Y18576D01*
G01X-10445Y18921D01*
G01X-10790Y19153D01*
G01X-11369Y19269D01*
G01X-11715Y19269D01*
G01X-12291Y19153D01*
G01X-12639Y18921D01*
G01X-12754Y18576D01*
G01X-12754Y18345D01*
G01X-11946Y20031D02*
G01X-10330Y20031D01*
G01X-11484Y20031D02*
G01X-11829Y20377D01*
G01X-11946Y20608D01*
G01X-11946Y20953D01*
G01X-11829Y21185D01*
G01X-11484Y21301D01*
G01X-10330Y21301D01*
G01X-11484Y21301D02*
G01X-11829Y21647D01*
G01X-11946Y21878D01*
G01X-11946Y22223D01*
G01X-11829Y22455D01*
G01X-11484Y22571D01*
G01X-10330Y22571D01*
G01X-11946Y23333D02*
G01X-10330Y23333D01*
G01X-11484Y23333D02*
G01X-11829Y23679D01*
G01X-11946Y23910D01*
G01X-11946Y24255D01*
G01X-11829Y24487D01*
G01X-11484Y24603D01*
G01X-10330Y24603D01*
G01X-11484Y24603D02*
G01X-11829Y24949D01*
G01X-11946Y25180D01*
G01X-11946Y25525D01*
G01X-11829Y25757D01*
G01X-11484Y25873D01*
G01X-10330Y25873D01*
G01X0Y33020D02*
G01X-13908Y33020D01*
G01X0Y0D02*
G01X-13908Y0D01*
G01X0Y41634D02*
G01X33424Y41634D01*
G01X52935Y41634D02*
G01X86360Y41634D01*
G01X1524Y41253D02*
G01X0Y41634D01*
G01X1524Y42015D01*
G01X84836Y41253D02*
G01X86360Y41634D01*
G01X84836Y42015D01*
G01X34508Y43019D02*
G01X34163Y42903D01*
G01X34048Y42674D01*
G01X34048Y42443D01*
G01X34163Y42212D01*
G01X34394Y42095D01*
G01X34856Y41981D01*
G01X35201Y41864D01*
G01X35433Y41633D01*
G01X35547Y41404D01*
G01X35547Y41056D01*
G01X35433Y40825D01*
G01X35318Y40711D01*
G01X34970Y40594D01*
G01X34508Y40594D01*
G01X34163Y40711D01*
G01X34048Y40825D01*
G01X33931Y41056D01*
G01X33931Y41404D01*
G01X34048Y41633D01*
G01X34277Y41864D01*
G01X34625Y41981D01*
G01X35087Y42095D01*
G01X35318Y42212D01*
G01X35433Y42443D01*
G01X35433Y42674D01*
G01X35318Y42903D01*
G01X34970Y43019D01*
G01X34508Y43019D01*
G01X37696Y42674D02*
G01X37579Y42903D01*
G01X37233Y43019D01*
G01X37002Y43019D01*
G01X36657Y42903D01*
G01X36426Y42557D01*
G01X36309Y41981D01*
G01X36309Y41404D01*
G01X36426Y40942D01*
G01X36657Y40711D01*
G01X37002Y40594D01*
G01X37119Y40594D01*
G01X37465Y40711D01*
G01X37696Y40942D01*
G01X37810Y41287D01*
G01X37810Y41404D01*
G01X37696Y41749D01*
G01X37465Y41981D01*
G01X37119Y42095D01*
G01X37002Y42095D01*
G01X36657Y41981D01*
G01X36426Y41749D01*
G01X36309Y41404D01*
G01X38689Y41173D02*
G01X38572Y41056D01*
G01X38689Y40942D01*
G01X38803Y41056D01*
G01X38689Y41173D01*
G01X39796Y43019D02*
G01X41066Y43019D01*
G01X40373Y42095D01*
G01X40721Y42095D01*
G01X40952Y41981D01*
G01X41066Y41864D01*
G01X41183Y41518D01*
G01X41183Y41287D01*
G01X41066Y40942D01*
G01X40835Y40711D01*
G01X40490Y40594D01*
G01X40144Y40594D01*
G01X39796Y40711D01*
G01X39682Y40825D01*
G01X39565Y41056D01*
G01X43329Y42674D02*
G01X43215Y42903D01*
G01X42867Y43019D01*
G01X42636Y43019D01*
G01X42291Y42903D01*
G01X42059Y42557D01*
G01X41945Y41981D01*
G01X41945Y41404D01*
G01X42059Y40942D01*
G01X42291Y40711D01*
G01X42636Y40594D01*
G01X42753Y40594D01*
G01X43098Y40711D01*
G01X43329Y40942D01*
G01X43446Y41287D01*
G01X43446Y41404D01*
G01X43329Y41749D01*
G01X43098Y41981D01*
G01X42753Y42095D01*
G01X42636Y42095D01*
G01X42291Y41981D01*
G01X42059Y41749D01*
G01X41945Y41404D01*
G01X44899Y43019D02*
G01X44554Y42903D01*
G01X44323Y42557D01*
G01X44208Y41981D01*
G01X44208Y41633D01*
G01X44323Y41056D01*
G01X44554Y40711D01*
G01X44899Y40594D01*
G01X45130Y40594D01*
G01X45478Y40711D01*
G01X45707Y41056D01*
G01X45824Y41633D01*
G01X45824Y41981D01*
G01X45707Y42557D01*
G01X45478Y42903D01*
G01X45130Y43019D01*
G01X44899Y43019D01*
G01X46586Y42212D02*
G01X46586Y40594D01*
G01X46586Y41749D02*
G01X46931Y42095D01*
G01X47162Y42212D01*
G01X47510Y42212D01*
G01X47739Y42095D01*
G01X47856Y41749D01*
G01X47856Y40594D01*
G01X47856Y41749D02*
G01X48201Y42095D01*
G01X48432Y42212D01*
G01X48780Y42212D01*
G01X49009Y42095D01*
G01X49126Y41749D01*
G01X49126Y40594D01*
G01X49888Y42212D02*
G01X49888Y40594D01*
G01X49888Y41749D02*
G01X50233Y42095D01*
G01X50464Y42212D01*
G01X50812Y42212D01*
G01X51041Y42095D01*
G01X51158Y41749D01*
G01X51158Y40594D01*
G01X51158Y41749D02*
G01X51503Y42095D01*
G01X51734Y42212D01*
G01X52082Y42212D01*
G01X52311Y42095D01*
G01X52428Y41749D01*
G01X52428Y40594D01*
G01X0Y33020D02*
G01X0Y44174D01*
G01X86360Y33020D02*
G01X86360Y44174D01*
G54D29*
G01X12273Y2608D02*
G01X12377Y2575D01*
G01X12446Y2504D01*
G01X12481Y2400D01*
G01X12481Y2367D01*
G01X12446Y2263D01*
G01X12377Y2194D01*
G01X12273Y2159D01*
G01X12237Y2159D01*
G01X12133Y2194D01*
G01X12065Y2263D01*
G01X12029Y2367D01*
G01X12029Y2400D01*
G01X12065Y2504D01*
G01X12133Y2575D01*
G01X12273Y2608D01*
G01X12446Y2608D01*
G01X12618Y2575D01*
G01X12722Y2504D01*
G01X12758Y2400D01*
G01X12758Y2331D01*
G01X12722Y2227D01*
G01X12654Y2194D01*
G01X12029Y4871D02*
G01X12065Y4767D01*
G01X12133Y4734D01*
G01X12204Y4734D01*
G01X12273Y4767D01*
G01X12306Y4838D01*
G01X12341Y4975D01*
G01X12377Y5080D01*
G01X12446Y5148D01*
G01X12514Y5184D01*
G01X12618Y5184D01*
G01X12687Y5148D01*
G01X12722Y5115D01*
G01X12758Y5011D01*
G01X12758Y4871D01*
G01X12722Y4767D01*
G01X12687Y4734D01*
G01X12618Y4699D01*
G01X12514Y4699D01*
G01X12446Y4734D01*
G01X12377Y4803D01*
G01X12341Y4907D01*
G01X12306Y5044D01*
G01X12273Y5115D01*
G01X12204Y5148D01*
G01X12133Y5148D01*
G01X12065Y5115D01*
G01X12029Y5011D01*
G01X12029Y4871D01*
G01X12029Y7724D02*
G01X12758Y7378D01*
G01X12029Y7239D02*
G01X12029Y7724D01*
G01X12133Y10195D02*
G01X12065Y10160D01*
G01X12029Y10055D01*
G01X12029Y9987D01*
G01X12065Y9883D01*
G01X12169Y9814D01*
G01X12341Y9779D01*
G01X12514Y9779D01*
G01X12654Y9814D01*
G01X12722Y9883D01*
G01X12758Y9987D01*
G01X12758Y10020D01*
G01X12722Y10124D01*
G01X12654Y10195D01*
G01X12550Y10228D01*
G01X12514Y10228D01*
G01X12410Y10195D01*
G01X12341Y10124D01*
G01X12306Y10020D01*
G01X12306Y9987D01*
G01X12341Y9883D01*
G01X12410Y9814D01*
G01X12514Y9779D01*
G01X12029Y12735D02*
G01X12029Y12387D01*
G01X12341Y12354D01*
G01X12306Y12387D01*
G01X12273Y12491D01*
G01X12273Y12595D01*
G01X12306Y12700D01*
G01X12377Y12768D01*
G01X12481Y12804D01*
G01X12550Y12804D01*
G01X12654Y12768D01*
G01X12722Y12700D01*
G01X12758Y12595D01*
G01X12758Y12491D01*
G01X12722Y12387D01*
G01X12687Y12354D01*
G01X12618Y12319D01*
G01X12029Y15204D02*
G01X12514Y14859D01*
G01X12514Y15379D01*
G01X12029Y15204D02*
G01X12758Y15204D01*
G01X12029Y17467D02*
G01X12029Y17848D01*
G01X12306Y17640D01*
G01X12306Y17744D01*
G01X12341Y17815D01*
G01X12377Y17848D01*
G01X12481Y17884D01*
G01X12550Y17884D01*
G01X12654Y17848D01*
G01X12722Y17780D01*
G01X12758Y17675D01*
G01X12758Y17571D01*
G01X12722Y17467D01*
G01X12687Y17434D01*
G01X12618Y17399D01*
G01X12100Y20101D02*
G01X12065Y20101D01*
G01X11996Y20134D01*
G01X11960Y20170D01*
G01X11925Y20238D01*
G01X11925Y20378D01*
G01X11960Y20447D01*
G01X11996Y20482D01*
G01X12065Y20515D01*
G01X12133Y20515D01*
G01X12202Y20482D01*
G01X12306Y20411D01*
G01X12654Y20066D01*
G01X12654Y20551D01*
G01X12268Y22479D02*
G01X12217Y22453D01*
G01X12166Y22402D01*
G01X12141Y22352D01*
G01X12141Y22250D01*
G01X12166Y22199D01*
G01X12217Y22148D01*
G01X12268Y22123D01*
G01X12344Y22098D01*
G01X12471Y22098D01*
G01X12547Y22123D01*
G01X12598Y22148D01*
G01X12649Y22199D01*
G01X12674Y22250D01*
G01X12674Y22352D01*
G01X12649Y22402D01*
G01X12598Y22453D01*
G01X12547Y22479D01*
G01X12471Y22479D01*
G01X12471Y22352D02*
G01X12471Y22479D01*
G01X12141Y22646D02*
G01X12674Y22646D01*
G01X12141Y22646D02*
G01X12674Y23002D01*
G01X12141Y23002D02*
G01X12674Y23002D01*
G01X12141Y23169D02*
G01X12674Y23169D01*
G01X12141Y23169D02*
G01X12141Y23347D01*
G01X12166Y23423D01*
G01X12217Y23474D01*
G01X12268Y23500D01*
G01X12344Y23525D01*
G01X12471Y23525D01*
G01X12547Y23500D01*
G01X12598Y23474D01*
G01X12649Y23423D01*
G01X12674Y23347D01*
G01X12674Y23169D01*
G01X12268Y25019D02*
G01X12217Y24993D01*
G01X12166Y24942D01*
G01X12141Y24892D01*
G01X12141Y24790D01*
G01X12166Y24739D01*
G01X12217Y24688D01*
G01X12268Y24663D01*
G01X12344Y24638D01*
G01X12471Y24638D01*
G01X12547Y24663D01*
G01X12598Y24688D01*
G01X12649Y24739D01*
G01X12674Y24790D01*
G01X12674Y24892D01*
G01X12649Y24942D01*
G01X12598Y24993D01*
G01X12547Y25019D01*
G01X12471Y25019D01*
G01X12471Y24892D02*
G01X12471Y25019D01*
G01X12141Y25186D02*
G01X12674Y25186D01*
G01X12141Y25186D02*
G01X12674Y25542D01*
G01X12141Y25542D02*
G01X12674Y25542D01*
G01X12141Y25709D02*
G01X12674Y25709D01*
G01X12141Y25709D02*
G01X12141Y25887D01*
G01X12166Y25963D01*
G01X12217Y26014D01*
G01X12268Y26040D01*
G01X12344Y26065D01*
G01X12471Y26065D01*
G01X12547Y26040D01*
G01X12598Y26014D01*
G01X12649Y25963D01*
G01X12674Y25887D01*
G01X12674Y25709D01*
G01X12141Y27432D02*
G01X12674Y27432D01*
G01X12141Y27432D02*
G01X12141Y27660D01*
G01X12166Y27736D01*
G01X12192Y27762D01*
G01X12242Y27787D01*
G01X12293Y27787D01*
G01X12344Y27762D01*
G01X12369Y27736D01*
G01X12395Y27660D01*
G01X12395Y27432D01*
G01X12395Y27609D02*
G01X12674Y27787D01*
G01X12141Y27955D02*
G01X12674Y28310D01*
G01X12141Y28310D02*
G01X12674Y27955D01*
G01X12141Y28478D02*
G01X12674Y28478D01*
G01X12141Y29895D02*
G01X12674Y29895D01*
G01X12141Y29718D02*
G01X12141Y30073D01*
G01X12141Y30241D02*
G01X12674Y30596D01*
G01X12141Y30596D02*
G01X12674Y30241D01*
G01X12141Y30916D02*
G01X12166Y30866D01*
G01X12217Y30815D01*
G01X12268Y30789D01*
G01X12344Y30764D01*
G01X12471Y30764D01*
G01X12547Y30789D01*
G01X12598Y30815D01*
G01X12649Y30866D01*
G01X12674Y30916D01*
G01X12674Y31018D01*
G01X12649Y31069D01*
G01X12598Y31120D01*
G01X12547Y31145D01*
G01X12471Y31170D01*
G01X12344Y31170D01*
G01X12268Y31145D01*
G01X12217Y31120D01*
G01X12166Y31069D01*
G01X12141Y31018D01*
G01X12141Y30916D01*
G01X23063Y29718D02*
G01X23596Y29718D01*
G01X23063Y29718D02*
G01X23063Y29946D01*
G01X23088Y30022D01*
G01X23114Y30048D01*
G01X23164Y30073D01*
G01X23215Y30073D01*
G01X23266Y30048D01*
G01X23291Y30022D01*
G01X23317Y29946D01*
G01X23317Y29718D01*
G01X23317Y29895D02*
G01X23596Y30073D01*
G01X23063Y30444D02*
G01X23596Y30241D01*
G01X23063Y30444D02*
G01X23596Y30647D01*
G01X23418Y30317D02*
G01X23418Y30571D01*
G01X23063Y30815D02*
G01X23596Y30942D01*
G01X23063Y31069D02*
G01X23596Y30942D01*
G01X23063Y31069D02*
G01X23596Y31196D01*
G01X23063Y31323D02*
G01X23596Y31196D01*
G01X23190Y27559D02*
G01X23139Y27533D01*
G01X23088Y27482D01*
G01X23063Y27432D01*
G01X23063Y27330D01*
G01X23088Y27279D01*
G01X23139Y27228D01*
G01X23190Y27203D01*
G01X23266Y27178D01*
G01X23393Y27178D01*
G01X23469Y27203D01*
G01X23520Y27228D01*
G01X23571Y27279D01*
G01X23596Y27330D01*
G01X23596Y27432D01*
G01X23571Y27482D01*
G01X23520Y27533D01*
G01X23469Y27559D01*
G01X23393Y27559D01*
G01X23393Y27432D02*
G01X23393Y27559D01*
G01X23063Y27726D02*
G01X23596Y27726D01*
G01X23063Y27726D02*
G01X23596Y28082D01*
G01X23063Y28082D02*
G01X23596Y28082D01*
G01X23063Y28249D02*
G01X23596Y28249D01*
G01X23063Y28249D02*
G01X23063Y28427D01*
G01X23088Y28503D01*
G01X23139Y28554D01*
G01X23190Y28580D01*
G01X23266Y28605D01*
G01X23393Y28605D01*
G01X23469Y28580D01*
G01X23520Y28554D01*
G01X23571Y28503D01*
G01X23596Y28427D01*
G01X23596Y28249D01*
G01X23063Y24638D02*
G01X23596Y24638D01*
G01X23063Y24638D02*
G01X23063Y24866D01*
G01X23088Y24942D01*
G01X23114Y24968D01*
G01X23164Y24993D01*
G01X23215Y24993D01*
G01X23266Y24968D01*
G01X23291Y24942D01*
G01X23317Y24866D01*
G01X23317Y24638D01*
G01X23317Y24815D02*
G01X23596Y24993D01*
G01X23139Y25516D02*
G01X23088Y25466D01*
G01X23063Y25389D01*
G01X23063Y25288D01*
G01X23088Y25212D01*
G01X23139Y25161D01*
G01X23190Y25161D01*
G01X23241Y25186D01*
G01X23266Y25212D01*
G01X23291Y25262D01*
G01X23342Y25415D01*
G01X23368Y25466D01*
G01X23393Y25491D01*
G01X23444Y25516D01*
G01X23520Y25516D01*
G01X23571Y25466D01*
G01X23596Y25389D01*
G01X23596Y25288D01*
G01X23571Y25212D01*
G01X23520Y25161D01*
G01X23063Y25862D02*
G01X23596Y25862D01*
G01X23063Y25684D02*
G01X23063Y26040D01*
G01X23063Y22098D02*
G01X23596Y22301D01*
G01X23063Y22504D02*
G01X23596Y22301D01*
G01X23190Y23053D02*
G01X23139Y23027D01*
G01X23088Y22976D01*
G01X23063Y22926D01*
G01X23063Y22824D01*
G01X23088Y22773D01*
G01X23139Y22722D01*
G01X23190Y22697D01*
G01X23266Y22672D01*
G01X23393Y22672D01*
G01X23469Y22697D01*
G01X23520Y22722D01*
G01X23571Y22773D01*
G01X23596Y22824D01*
G01X23596Y22926D01*
G01X23571Y22976D01*
G01X23520Y23027D01*
G01X23469Y23053D01*
G01X23190Y23601D02*
G01X23139Y23576D01*
G01X23088Y23525D01*
G01X23063Y23474D01*
G01X23063Y23373D01*
G01X23088Y23322D01*
G01X23139Y23271D01*
G01X23190Y23246D01*
G01X23266Y23220D01*
G01X23393Y23220D01*
G01X23469Y23246D01*
G01X23520Y23271D01*
G01X23571Y23322D01*
G01X23596Y23373D01*
G01X23596Y23474D01*
G01X23571Y23525D01*
G01X23520Y23576D01*
G01X23469Y23601D01*
G01X22951Y19834D02*
G01X23680Y19558D01*
G01X22951Y19834D02*
G01X23680Y20111D01*
G01X23436Y19662D02*
G01X23436Y20007D01*
G01X22951Y20408D02*
G01X22951Y20789D01*
G01X23228Y20584D01*
G01X23228Y20688D01*
G01X23263Y20756D01*
G01X23299Y20789D01*
G01X23403Y20825D01*
G01X23472Y20825D01*
G01X23576Y20789D01*
G01X23644Y20721D01*
G01X23680Y20617D01*
G01X23680Y20513D01*
G01X23644Y20408D01*
G01X23609Y20375D01*
G01X23540Y20340D01*
G01X22951Y17294D02*
G01X23680Y17018D01*
G01X22951Y17294D02*
G01X23680Y17571D01*
G01X23436Y17122D02*
G01X23436Y17467D01*
G01X23126Y17835D02*
G01X23091Y17835D01*
G01X23022Y17868D01*
G01X22987Y17904D01*
G01X22951Y17973D01*
G01X22951Y18112D01*
G01X22987Y18181D01*
G01X23022Y18216D01*
G01X23091Y18249D01*
G01X23159Y18249D01*
G01X23228Y18216D01*
G01X23332Y18148D01*
G01X23680Y17800D01*
G01X23680Y18285D01*
G01X22951Y15008D02*
G01X23680Y14732D01*
G01X22951Y15008D02*
G01X23680Y15285D01*
G01X23436Y14836D02*
G01X23436Y15181D01*
G01X23091Y15514D02*
G01X23055Y15582D01*
G01X22951Y15687D01*
G01X23680Y15687D01*
G01X22951Y12468D02*
G01X23680Y12192D01*
G01X22951Y12468D02*
G01X23680Y12745D01*
G01X23436Y12296D02*
G01X23436Y12641D01*
G01X22951Y13182D02*
G01X22987Y13078D01*
G01X23091Y13009D01*
G01X23263Y12974D01*
G01X23368Y12974D01*
G01X23540Y13009D01*
G01X23644Y13078D01*
G01X23680Y13182D01*
G01X23680Y13251D01*
G01X23644Y13355D01*
G01X23540Y13423D01*
G01X23368Y13459D01*
G01X23263Y13459D01*
G01X23091Y13423D01*
G01X22987Y13355D01*
G01X22951Y13251D01*
G01X22951Y13182D01*
G01X23091Y9652D02*
G01X23055Y9720D01*
G01X22951Y9824D01*
G01X23680Y9824D01*
G01X22951Y10469D02*
G01X22951Y10121D01*
G01X23263Y10088D01*
G01X23228Y10121D01*
G01X23195Y10226D01*
G01X23195Y10330D01*
G01X23228Y10434D01*
G01X23299Y10502D01*
G01X23403Y10538D01*
G01X23472Y10538D01*
G01X23576Y10502D01*
G01X23644Y10434D01*
G01X23680Y10330D01*
G01X23680Y10226D01*
G01X23644Y10121D01*
G01X23609Y10088D01*
G01X23540Y10053D01*
G01X23091Y7112D02*
G01X23055Y7180D01*
G01X22951Y7284D01*
G01X23680Y7284D01*
G01X22951Y7861D02*
G01X23436Y7513D01*
G01X23436Y8034D01*
G01X22951Y7861D02*
G01X23680Y7861D01*
G01X23091Y4318D02*
G01X23055Y4386D01*
G01X22951Y4490D01*
G01X23680Y4490D01*
G01X23055Y5135D02*
G01X22987Y5100D01*
G01X22951Y4996D01*
G01X22951Y4927D01*
G01X22987Y4823D01*
G01X23091Y4754D01*
G01X23263Y4719D01*
G01X23436Y4719D01*
G01X23576Y4754D01*
G01X23644Y4823D01*
G01X23680Y4927D01*
G01X23680Y4963D01*
G01X23644Y5067D01*
G01X23576Y5135D01*
G01X23472Y5168D01*
G01X23436Y5168D01*
G01X23332Y5135D01*
G01X23263Y5067D01*
G01X23228Y4963D01*
G01X23228Y4927D01*
G01X23263Y4823D01*
G01X23332Y4754D01*
G01X23436Y4719D01*
G01X23091Y2032D02*
G01X23055Y2100D01*
G01X22951Y2204D01*
G01X23680Y2204D01*
G01X22951Y2641D02*
G01X22987Y2537D01*
G01X23091Y2468D01*
G01X23263Y2433D01*
G01X23368Y2433D01*
G01X23540Y2468D01*
G01X23644Y2537D01*
G01X23680Y2641D01*
G01X23680Y2710D01*
G01X23644Y2814D01*
G01X23540Y2882D01*
G01X23368Y2918D01*
G01X23263Y2918D01*
G01X23091Y2882D01*
G01X22987Y2814D01*
G01X22951Y2710D01*
G01X22951Y2641D01*
G54D26*
G75*
G01X35814Y30709D02*
G03X35814Y30706I-200J-2D01*
G01*
G75*
G01X63754Y30709D02*
G03X63754Y30706I-200J-2D01*
G01*
G75*
G01X35814Y15469D02*
G03X35814Y15466I-200J-2D01*
G01*
G75*
G01X63754Y15469D02*
G03X63754Y15466I-200J-2D01*
G01*
M00*
M02*
