G04 Layer: TopSolderMaskLayer*
G04 EasyEDA v6.3.39, 2020-04-21T17:53:27+02:00*
G04 2b193ae985c243da8a3a613e667a09fd,91cc4837159741479c5be70faa949f3f,10*
G04 Gerber Generator version 0.2*
G04 Scale: 100 percent, Rotated: No, Reflected: No *
G04 Dimensions in millimeters *
G04 leading zeros omitted , absolute positions ,3 integer and 3 decimal *
%FSLAX33Y33*%
%MOMM*%
G90*
G71D02*

%ADD30C,0.803199*%
%ADD31C,6.203188*%
%ADD32C,1.854200*%
%ADD35C,1.778000*%
%ADD37C,1.903197*%
%ADD38C,1.803197*%

%LPD*%
G54D30*
G01X40471Y20955D02*
G01X41671Y20955D01*
G01X40471Y22225D02*
G01X41671Y22225D01*
G01X40471Y23495D02*
G01X41671Y23495D01*
G01X40471Y24765D02*
G01X41671Y24765D01*
G01X40471Y26035D02*
G01X41671Y26035D01*
G01X40471Y27305D02*
G01X41671Y27305D01*
G01X40471Y28575D02*
G01X41671Y28575D01*
G01X40471Y29845D02*
G01X41671Y29845D01*
G01X34528Y20955D02*
G01X35728Y20955D01*
G01X34528Y22225D02*
G01X35728Y22225D01*
G01X34528Y23495D02*
G01X35728Y23495D01*
G01X34528Y24765D02*
G01X35728Y24765D01*
G01X34528Y26035D02*
G01X35728Y26035D01*
G01X34528Y27305D02*
G01X35728Y27305D01*
G01X34528Y28575D02*
G01X35728Y28575D01*
G01X34528Y29845D02*
G01X35728Y29845D01*
G01X68411Y20955D02*
G01X69611Y20955D01*
G01X68411Y22225D02*
G01X69611Y22225D01*
G01X68411Y23495D02*
G01X69611Y23495D01*
G01X68411Y24765D02*
G01X69611Y24765D01*
G01X68411Y26035D02*
G01X69611Y26035D01*
G01X68411Y27305D02*
G01X69611Y27305D01*
G01X68411Y28575D02*
G01X69611Y28575D01*
G01X68411Y29845D02*
G01X69611Y29845D01*
G01X62468Y20955D02*
G01X63668Y20955D01*
G01X62468Y22225D02*
G01X63668Y22225D01*
G01X62468Y23495D02*
G01X63668Y23495D01*
G01X62468Y24765D02*
G01X63668Y24765D01*
G01X62468Y26035D02*
G01X63668Y26035D01*
G01X62468Y27305D02*
G01X63668Y27305D01*
G01X62468Y28575D02*
G01X63668Y28575D01*
G01X62468Y29845D02*
G01X63668Y29845D01*
G01X40471Y5715D02*
G01X41671Y5715D01*
G01X40471Y6985D02*
G01X41671Y6985D01*
G01X40471Y8255D02*
G01X41671Y8255D01*
G01X40471Y9525D02*
G01X41671Y9525D01*
G01X40471Y10795D02*
G01X41671Y10795D01*
G01X40471Y12065D02*
G01X41671Y12065D01*
G01X40471Y13335D02*
G01X41671Y13335D01*
G01X40471Y14605D02*
G01X41671Y14605D01*
G01X34528Y5715D02*
G01X35728Y5715D01*
G01X34528Y6985D02*
G01X35728Y6985D01*
G01X34528Y8255D02*
G01X35728Y8255D01*
G01X34528Y9525D02*
G01X35728Y9525D01*
G01X34528Y10795D02*
G01X35728Y10795D01*
G01X34528Y12065D02*
G01X35728Y12065D01*
G01X34528Y13335D02*
G01X35728Y13335D01*
G01X34528Y14605D02*
G01X35728Y14605D01*
G01X68411Y5715D02*
G01X69611Y5715D01*
G01X68411Y6985D02*
G01X69611Y6985D01*
G01X68411Y8255D02*
G01X69611Y8255D01*
G01X68411Y9525D02*
G01X69611Y9525D01*
G01X68411Y10795D02*
G01X69611Y10795D01*
G01X68411Y12065D02*
G01X69611Y12065D01*
G01X68411Y13335D02*
G01X69611Y13335D01*
G01X68411Y14605D02*
G01X69611Y14605D01*
G01X62468Y5715D02*
G01X63668Y5715D01*
G01X62468Y6985D02*
G01X63668Y6985D01*
G01X62468Y8255D02*
G01X63668Y8255D01*
G01X62468Y9525D02*
G01X63668Y9525D01*
G01X62468Y10795D02*
G01X63668Y10795D01*
G01X62468Y12065D02*
G01X63668Y12065D01*
G01X62468Y13335D02*
G01X63668Y13335D01*
G01X62468Y14605D02*
G01X63668Y14605D01*
G54D31*
G01X18034Y15240D03*
G54D32*
G01X10160Y2540D03*
G01X10160Y5080D03*
G01X10160Y7620D03*
G01X10160Y10160D03*
G01X10160Y12700D03*
G01X10160Y15240D03*
G01X10160Y17780D03*
G01X10160Y20320D03*
G01X10160Y22860D03*
G01X10160Y25400D03*
G01X10160Y27940D03*
G36*
G01X9232Y29552D02*
G01X9232Y31407D01*
G01X11087Y31407D01*
G01X11087Y29552D01*
G01X9232Y29552D01*
G37*
G01X25400Y30480D03*
G01X25400Y27940D03*
G01X25400Y25400D03*
G01X25400Y22860D03*
G01X25400Y20320D03*
G01X25400Y17780D03*
G01X25400Y15240D03*
G01X25400Y12700D03*
G01X25400Y10160D03*
G01X25400Y7620D03*
G01X25400Y5080D03*
G01X25400Y2540D03*
G36*
G01X1651Y29591D02*
G01X1651Y31369D01*
G01X3429Y31369D01*
G01X3429Y29591D01*
G01X1651Y29591D01*
G37*
G54D35*
G01X2540Y27940D03*
G36*
G01X49847Y29616D02*
G01X49847Y31343D01*
G01X51752Y31343D01*
G01X51752Y29616D01*
G01X49847Y29616D01*
G37*
G54D37*
G01X53340Y30480D03*
G01X50800Y27940D03*
G01X53340Y27940D03*
G01X50800Y25400D03*
G01X53340Y25400D03*
G01X50800Y22860D03*
G01X53340Y22860D03*
G01X50800Y20320D03*
G01X53340Y20320D03*
G36*
G01X77787Y29616D02*
G01X77787Y31343D01*
G01X79692Y31343D01*
G01X79692Y29616D01*
G01X77787Y29616D01*
G37*
G01X81280Y30480D03*
G01X78740Y27940D03*
G01X81280Y27940D03*
G01X78740Y25400D03*
G01X81280Y25400D03*
G01X78740Y22860D03*
G01X81280Y22860D03*
G01X78740Y20320D03*
G01X81280Y20320D03*
G36*
G01X49847Y14376D02*
G01X49847Y16103D01*
G01X51752Y16103D01*
G01X51752Y14376D01*
G01X49847Y14376D01*
G37*
G01X53340Y15240D03*
G01X50800Y12700D03*
G01X53340Y12700D03*
G01X50800Y10160D03*
G01X53340Y10160D03*
G01X50800Y7620D03*
G01X53340Y7620D03*
G01X50800Y5080D03*
G01X53340Y5080D03*
G36*
G01X77787Y14376D02*
G01X77787Y16103D01*
G01X79692Y16103D01*
G01X79692Y14376D01*
G01X77787Y14376D01*
G37*
G01X81280Y15240D03*
G01X78740Y12700D03*
G01X81280Y12700D03*
G01X78740Y10160D03*
G01X81280Y10160D03*
G01X78740Y7620D03*
G01X81280Y7620D03*
G01X78740Y5080D03*
G01X81280Y5080D03*
G54D38*
G01X2540Y2540D03*
G01X2540Y5080D03*
G01X2540Y7620D03*
G01X2540Y10160D03*
G01X2540Y12700D03*
G01X2540Y15240D03*
G01X2540Y17780D03*
G01X2540Y20320D03*
G01X2540Y22860D03*
G36*
G01X1638Y24498D02*
G01X1638Y26301D01*
G01X3441Y26301D01*
G01X3441Y24498D01*
G01X1638Y24498D01*
G37*
M00*
M02*
