G04 Layer: BottomSolderMaskLayer*
G04 EasyEDA v6.3.39, 2020-04-21T17:53:27+02:00*
G04 2b193ae985c243da8a3a613e667a09fd,91cc4837159741479c5be70faa949f3f,10*
G04 Gerber Generator version 0.2*
G04 Scale: 100 percent, Rotated: No, Reflected: No *
G04 Dimensions in millimeters *
G04 leading zeros omitted , absolute positions ,3 integer and 3 decimal *
%FSLAX33Y33*%
%MOMM*%
G90*
G71D02*

%ADD31C,6.203188*%
%ADD32C,1.854200*%
%ADD35C,1.778000*%
%ADD37C,1.903197*%
%ADD38C,1.803197*%

%LPD*%
G54D31*
G01X18034Y15240D03*
G54D32*
G01X10160Y2540D03*
G01X10160Y5080D03*
G01X10160Y7620D03*
G01X10160Y10160D03*
G01X10160Y12700D03*
G01X10160Y15240D03*
G01X10160Y17780D03*
G01X10160Y20320D03*
G01X10160Y22860D03*
G01X10160Y25400D03*
G01X10160Y27940D03*
G36*
G01X9232Y29552D02*
G01X9232Y31407D01*
G01X11087Y31407D01*
G01X11087Y29552D01*
G01X9232Y29552D01*
G37*
G01X25400Y30480D03*
G01X25400Y27940D03*
G01X25400Y25400D03*
G01X25400Y22860D03*
G01X25400Y20320D03*
G01X25400Y17780D03*
G01X25400Y15240D03*
G01X25400Y12700D03*
G01X25400Y10160D03*
G01X25400Y7620D03*
G01X25400Y5080D03*
G01X25400Y2540D03*
G36*
G01X1651Y29591D02*
G01X1651Y31369D01*
G01X3429Y31369D01*
G01X3429Y29591D01*
G01X1651Y29591D01*
G37*
G54D35*
G01X2540Y27940D03*
G36*
G01X49847Y29616D02*
G01X49847Y31343D01*
G01X51752Y31343D01*
G01X51752Y29616D01*
G01X49847Y29616D01*
G37*
G54D37*
G01X53340Y30480D03*
G01X50800Y27940D03*
G01X53340Y27940D03*
G01X50800Y25400D03*
G01X53340Y25400D03*
G01X50800Y22860D03*
G01X53340Y22860D03*
G01X50800Y20320D03*
G01X53340Y20320D03*
G36*
G01X77787Y29616D02*
G01X77787Y31343D01*
G01X79692Y31343D01*
G01X79692Y29616D01*
G01X77787Y29616D01*
G37*
G01X81280Y30480D03*
G01X78740Y27940D03*
G01X81280Y27940D03*
G01X78740Y25400D03*
G01X81280Y25400D03*
G01X78740Y22860D03*
G01X81280Y22860D03*
G01X78740Y20320D03*
G01X81280Y20320D03*
G36*
G01X49847Y14376D02*
G01X49847Y16103D01*
G01X51752Y16103D01*
G01X51752Y14376D01*
G01X49847Y14376D01*
G37*
G01X53340Y15240D03*
G01X50800Y12700D03*
G01X53340Y12700D03*
G01X50800Y10160D03*
G01X53340Y10160D03*
G01X50800Y7620D03*
G01X53340Y7620D03*
G01X50800Y5080D03*
G01X53340Y5080D03*
G36*
G01X77787Y14376D02*
G01X77787Y16103D01*
G01X79692Y16103D01*
G01X79692Y14376D01*
G01X77787Y14376D01*
G37*
G01X81280Y15240D03*
G01X78740Y12700D03*
G01X81280Y12700D03*
G01X78740Y10160D03*
G01X81280Y10160D03*
G01X78740Y7620D03*
G01X81280Y7620D03*
G01X78740Y5080D03*
G01X81280Y5080D03*
G54D38*
G01X2540Y2540D03*
G01X2540Y5080D03*
G01X2540Y7620D03*
G01X2540Y10160D03*
G01X2540Y12700D03*
G01X2540Y15240D03*
G01X2540Y17780D03*
G01X2540Y20320D03*
G01X2540Y22860D03*
G36*
G01X1638Y24498D02*
G01X1638Y26301D01*
G01X3441Y26301D01*
G01X3441Y24498D01*
G01X1638Y24498D01*
G37*
M00*
M02*
