;Layer: Drill PTH
;EasyEDA v6.3.39, 2020-04-21T17:53:27+02:00
;2b193ae985c243da8a3a613e667a09fd,91cc4837159741479c5be70faa949f3f,10
;Gerber Generator version 0.2
M48
METRIC,LZ,000.000
;Holesize 1 = 0.305 METRIC
T01C0.305
;Holesize 2 = 0.889 METRIC
T02C0.889
;Holesize 3 = 0.900 METRIC
T03C0.900
;Holesize 4 = 1.000 METRIC
T04C1.000
;Holesize 5 = 1.101 METRIC
T05C1.101
;Holesize 6 = 3.200 METRIC
T06C3.200
%
G05
G90
T01
X+047752Y+028448
X+047752Y+013335
X+075692Y+013208
X+075692Y+028575
X+032258Y+027178
X+023622Y+026670
X+033782Y+029718
X+033782Y+028448
X+033782Y+024638
X+044450Y+021590
X+033782Y+014478
X+033782Y+013208
X+033782Y+009398
X+044704Y+006350
X+061468Y+014478
X+061468Y+013208
X+061468Y+009398
X+072898Y+006350
X+061468Y+029718
X+061468Y+028448
X+061468Y+024638
X+073152Y+021590
X+039370Y+008128
X+039370Y+006858
X+039370Y+005588
X+067310Y+008128
X+067310Y+006858
X+067310Y+005588
X+067310Y+023368
X+067310Y+020828
X+067310Y+022098
X+039370Y+023368
X+039370Y+022098
X+039370Y+020828
X+030480Y+006858
X+031496Y+005588
X+030480Y+010160
X+031496Y+010160
X+061468Y+011938
X+032766Y+015748
X+030734Y+020828
X+037846Y+027178
X+071882Y+020574
X+057150Y+010668
X+030480Y+024384
T02
X+002540Y+030480
X+002540Y+027940
T03
X+010160Y+002540
X+010160Y+005080
X+010160Y+007620
X+010160Y+010160
X+010160Y+012700
X+010160Y+015240
X+010160Y+017780
X+010160Y+020320
X+010160Y+022860
X+010160Y+025400
X+010160Y+027940
X+010160Y+030480
X+025400Y+030480
X+025400Y+027940
X+025400Y+025400
X+025400Y+022860
X+025400Y+020320
X+025400Y+017780
X+025400Y+015240
X+025400Y+012700
X+025400Y+010160
X+025400Y+007620
X+025400Y+005080
X+025400Y+002540
T04
X+002540Y+002540
X+002540Y+005080
X+002540Y+007620
X+002540Y+010160
X+002540Y+012700
X+002540Y+015240
X+002540Y+017780
X+002540Y+020320
X+002540Y+022860
X+002540Y+025400
T05
X+050799Y+030480
X+053340Y+030480
X+050800Y+027940
X+053340Y+027940
X+050800Y+025400
X+053340Y+025400
X+050800Y+022860
X+053340Y+022860
X+050800Y+020320
X+053340Y+020320
X+078740Y+030480
X+081280Y+030480
X+078740Y+027940
X+081280Y+027940
X+078740Y+025400
X+081280Y+025400
X+078740Y+022860
X+081280Y+022860
X+078740Y+020320
X+081280Y+020320
X+050799Y+015240
X+053340Y+015240
X+050800Y+012700
X+053340Y+012700
X+050800Y+010160
X+053340Y+010160
X+050800Y+007620
X+053340Y+007620
X+050800Y+005080
X+053340Y+005080
X+078739Y+015240
X+081280Y+015240
X+078740Y+012700
X+081280Y+012700
X+078740Y+010160
X+081280Y+010160
X+078740Y+007620
X+081280Y+007620
X+078740Y+005080
X+081280Y+005080
T06
X+018034Y+015240
M30
